%TF.GenerationSoftware,KiCad,Pcbnew,(5.99.0-11707-g9aa9857685)*%
%TF.CreationDate,2021-10-10T10:39:49+03:00*%
%TF.ProjectId,RubyLink_revA,52756279-4c69-46e6-9b5f-726576412e6b,rev?*%
%TF.SameCoordinates,Original*%
%TF.FileFunction,Legend,Bot*%
%TF.FilePolarity,Positive*%
%FSLAX46Y46*%
G04 Gerber Fmt 4.6, Leading zero omitted, Abs format (unit mm)*
G04 Created by KiCad (PCBNEW (5.99.0-11707-g9aa9857685)) date 2021-10-10 10:39:49*
%MOMM*%
%LPD*%
G01*
G04 APERTURE LIST*
G04 Aperture macros list*
%AMRoundRect*
0 Rectangle with rounded corners*
0 $1 Rounding radius*
0 $2 $3 $4 $5 $6 $7 $8 $9 X,Y pos of 4 corners*
0 Add a 4 corners polygon primitive as box body*
4,1,4,$2,$3,$4,$5,$6,$7,$8,$9,$2,$3,0*
0 Add four circle primitives for the rounded corners*
1,1,$1+$1,$2,$3*
1,1,$1+$1,$4,$5*
1,1,$1+$1,$6,$7*
1,1,$1+$1,$8,$9*
0 Add four rect primitives between the rounded corners*
20,1,$1+$1,$2,$3,$4,$5,0*
20,1,$1+$1,$4,$5,$6,$7,0*
20,1,$1+$1,$6,$7,$8,$9,0*
20,1,$1+$1,$8,$9,$2,$3,0*%
G04 Aperture macros list end*
%ADD10C,0.150000*%
%ADD11C,0.153000*%
%ADD12C,0.120000*%
%ADD13C,2.800000*%
%ADD14RoundRect,0.300000X0.600000X-0.600000X0.600000X0.600000X-0.600000X0.600000X-0.600000X-0.600000X0*%
%ADD15C,1.800000*%
%ADD16O,0.700000X0.950000*%
%ADD17C,0.700000*%
%ADD18O,2.400000X1.400000*%
%ADD19O,2.700000X1.400000*%
%ADD20RoundRect,0.300000X-0.600000X0.600000X-0.600000X-0.600000X0.600000X-0.600000X0.600000X0.600000X0*%
%ADD21C,3.350000*%
%ADD22C,2.700000*%
%ADD23C,1.990000*%
%ADD24RoundRect,0.050000X-0.950000X0.950000X-0.950000X-0.950000X0.950000X-0.950000X0.950000X0.950000X0*%
%ADD25C,2.000000*%
%ADD26RoundRect,0.300000X-0.600000X-0.600000X0.600000X-0.600000X0.600000X0.600000X-0.600000X0.600000X0*%
%ADD27C,1.100000*%
G04 APERTURE END LIST*
D10*
X165060000Y-65870000D02*
X158560000Y-72370000D01*
X125560000Y-69370000D02*
X129060000Y-65870000D01*
X125560000Y-71370000D02*
X131060000Y-65870000D01*
X158060000Y-65870000D02*
X151560000Y-72370000D01*
X147060000Y-65870000D02*
X140560000Y-72370000D01*
X129060000Y-50870000D02*
X125560000Y-54370000D01*
X182060000Y-65870000D02*
X182060000Y-72370000D01*
X137060000Y-65870000D02*
X130560000Y-72370000D01*
X128560000Y-55370000D02*
X125560000Y-58370000D01*
X155060000Y-65870000D02*
X148560000Y-72370000D01*
X168560000Y-72370000D02*
X175060000Y-65870000D01*
X144060000Y-65870000D02*
X137560000Y-72370000D01*
X164060000Y-65870000D02*
X157560000Y-72370000D01*
X143060000Y-65870000D02*
X136560000Y-72370000D01*
X127960000Y-47970000D02*
X125560000Y-50370000D01*
X164560000Y-72370000D02*
X171060000Y-65870000D01*
X126560000Y-72370000D02*
X133060000Y-65870000D01*
X140060000Y-65870000D02*
X133560000Y-72370000D01*
X125560000Y-66370000D02*
X128560000Y-63370000D01*
X166560000Y-72370000D02*
X173060000Y-65870000D01*
X146060000Y-65870000D02*
X139560000Y-72370000D01*
X128560000Y-64370000D02*
X125560000Y-67370000D01*
X129060000Y-48870000D02*
X125560000Y-52370000D01*
X178560000Y-72370000D02*
X182060000Y-68870000D01*
X174560000Y-72370000D02*
X181060000Y-65870000D01*
X173560000Y-72370000D02*
X180060000Y-65870000D01*
X125560000Y-72370000D02*
X125560000Y-47970000D01*
X151060000Y-65870000D02*
X144560000Y-72370000D01*
X128960000Y-47970000D02*
X125560000Y-51370000D01*
X160560000Y-72370000D02*
X167060000Y-65870000D01*
X161560000Y-72370000D02*
X168060000Y-65870000D01*
X132060000Y-65870000D02*
X125560000Y-72370000D01*
X179560000Y-72370000D02*
X182060000Y-69870000D01*
X125560000Y-68370000D02*
X128560000Y-65370000D01*
X153060000Y-65870000D02*
X146560000Y-72370000D01*
X129060000Y-52370000D02*
X128560000Y-52370000D01*
X135060000Y-65870000D02*
X128560000Y-72370000D01*
X160060000Y-65870000D02*
X153560000Y-72370000D01*
X152060000Y-65870000D02*
X145560000Y-72370000D01*
X128560000Y-57370000D02*
X125560000Y-60370000D01*
X134060000Y-65870000D02*
X127560000Y-72370000D01*
X125560000Y-49370000D02*
X126960000Y-47970000D01*
X182060000Y-72370000D02*
X125560000Y-72370000D01*
X182060000Y-65870000D02*
X128560000Y-65870000D01*
X128560000Y-62370000D02*
X125560000Y-65370000D01*
X159060000Y-65870000D02*
X152560000Y-72370000D01*
X182060000Y-67870000D02*
X177560000Y-72370000D01*
X180560000Y-72370000D02*
X182060000Y-70870000D01*
X162560000Y-72370000D02*
X169060000Y-65870000D01*
X129060000Y-49870000D02*
X125560000Y-53370000D01*
X163060000Y-65870000D02*
X156560000Y-72370000D01*
X156060000Y-65870000D02*
X149560000Y-72370000D01*
X161060000Y-65870000D02*
X154560000Y-72370000D01*
X149060000Y-65870000D02*
X142560000Y-72370000D01*
X171560000Y-72370000D02*
X178060000Y-65870000D01*
X170560000Y-72370000D02*
X177060000Y-65870000D01*
X162060000Y-65870000D02*
X155560000Y-72370000D01*
X125560000Y-47970000D02*
X129060000Y-47970000D01*
X128560000Y-53370000D02*
X125560000Y-56370000D01*
X145060000Y-65870000D02*
X138560000Y-72370000D01*
X125560000Y-48370000D02*
X125960000Y-47970000D01*
X142060000Y-65870000D02*
X135560000Y-72370000D01*
X129060000Y-47970000D02*
X129060000Y-52370000D01*
X130060000Y-65870000D02*
X125560000Y-70370000D01*
X163560000Y-72370000D02*
X170060000Y-65870000D01*
X138060000Y-65870000D02*
X131560000Y-72370000D01*
X128560000Y-58370000D02*
X125560000Y-61370000D01*
X169560000Y-72370000D02*
X176060000Y-65870000D01*
X141060000Y-65870000D02*
X134560000Y-72370000D01*
X181560000Y-72370000D02*
X182060000Y-71870000D01*
X129560000Y-72370000D02*
X136060000Y-65870000D01*
X125560000Y-64370000D02*
X128560000Y-61370000D01*
X154060000Y-65870000D02*
X147560000Y-72370000D01*
X148060000Y-65870000D02*
X141560000Y-72370000D01*
X150060000Y-65870000D02*
X143560000Y-72370000D01*
X128560000Y-54370000D02*
X125560000Y-57370000D01*
X128560000Y-59370000D02*
X125560000Y-62370000D01*
X139060000Y-65870000D02*
X132560000Y-72370000D01*
X128560000Y-56370000D02*
X125560000Y-59370000D01*
X165560000Y-72370000D02*
X172060000Y-65870000D01*
X166060000Y-65870000D02*
X159560000Y-72370000D01*
X157060000Y-65870000D02*
X150560000Y-72370000D01*
X128560000Y-60370000D02*
X125560000Y-63370000D01*
X128560000Y-52370000D02*
X125560000Y-55370000D01*
X167560000Y-72370000D02*
X174060000Y-65870000D01*
X176560000Y-72370000D02*
X182060000Y-66870000D01*
X128560000Y-52370000D02*
X128560000Y-65870000D01*
X172560000Y-72370000D02*
X179060000Y-65870000D01*
X175560000Y-72370000D02*
X182060000Y-65870000D01*
D11*
X130669523Y-100631904D02*
X130212380Y-100631904D01*
X130440952Y-101431904D02*
X130440952Y-100631904D01*
X129945714Y-101431904D02*
X129945714Y-100631904D01*
X129640952Y-100631904D01*
X129564761Y-100670000D01*
X129526666Y-100708095D01*
X129488571Y-100784285D01*
X129488571Y-100898571D01*
X129526666Y-100974761D01*
X129564761Y-101012857D01*
X129640952Y-101050952D01*
X129945714Y-101050952D01*
X129221904Y-100631904D02*
X128688571Y-100631904D01*
X129031428Y-101431904D01*
X121769523Y-90683904D02*
X121312380Y-90683904D01*
X121540952Y-91483904D02*
X121540952Y-90683904D01*
X121045714Y-91483904D02*
X121045714Y-90683904D01*
X120740952Y-90683904D01*
X120664761Y-90722000D01*
X120626666Y-90760095D01*
X120588571Y-90836285D01*
X120588571Y-90950571D01*
X120626666Y-91026761D01*
X120664761Y-91064857D01*
X120740952Y-91102952D01*
X121045714Y-91102952D01*
X120283809Y-90760095D02*
X120245714Y-90722000D01*
X120169523Y-90683904D01*
X119979047Y-90683904D01*
X119902857Y-90722000D01*
X119864761Y-90760095D01*
X119826666Y-90836285D01*
X119826666Y-90912476D01*
X119864761Y-91026761D01*
X120321904Y-91483904D01*
X119826666Y-91483904D01*
X181050476Y-82631904D02*
X180593333Y-82631904D01*
X180821904Y-83431904D02*
X180821904Y-82631904D01*
X180326666Y-83431904D02*
X180326666Y-82631904D01*
X180021904Y-82631904D01*
X179945714Y-82670000D01*
X179907619Y-82708095D01*
X179869523Y-82784285D01*
X179869523Y-82898571D01*
X179907619Y-82974761D01*
X179945714Y-83012857D01*
X180021904Y-83050952D01*
X180326666Y-83050952D01*
X179564761Y-82708095D02*
X179526666Y-82670000D01*
X179450476Y-82631904D01*
X179260000Y-82631904D01*
X179183809Y-82670000D01*
X179145714Y-82708095D01*
X179107619Y-82784285D01*
X179107619Y-82860476D01*
X179145714Y-82974761D01*
X179602857Y-83431904D01*
X179107619Y-83431904D01*
X178612380Y-82631904D02*
X178536190Y-82631904D01*
X178460000Y-82670000D01*
X178421904Y-82708095D01*
X178383809Y-82784285D01*
X178345714Y-82936666D01*
X178345714Y-83127142D01*
X178383809Y-83279523D01*
X178421904Y-83355714D01*
X178460000Y-83393809D01*
X178536190Y-83431904D01*
X178612380Y-83431904D01*
X178688571Y-83393809D01*
X178726666Y-83355714D01*
X178764761Y-83279523D01*
X178802857Y-83127142D01*
X178802857Y-82936666D01*
X178764761Y-82784285D01*
X178726666Y-82708095D01*
X178688571Y-82670000D01*
X178612380Y-82631904D01*
X119769523Y-94631904D02*
X119312380Y-94631904D01*
X119540952Y-95431904D02*
X119540952Y-94631904D01*
X119045714Y-95431904D02*
X119045714Y-94631904D01*
X118740952Y-94631904D01*
X118664761Y-94670000D01*
X118626666Y-94708095D01*
X118588571Y-94784285D01*
X118588571Y-94898571D01*
X118626666Y-94974761D01*
X118664761Y-95012857D01*
X118740952Y-95050952D01*
X119045714Y-95050952D01*
X117826666Y-95431904D02*
X118283809Y-95431904D01*
X118055238Y-95431904D02*
X118055238Y-94631904D01*
X118131428Y-94746190D01*
X118207619Y-94822380D01*
X118283809Y-94860476D01*
X138650476Y-58931904D02*
X138193333Y-58931904D01*
X138421904Y-59731904D02*
X138421904Y-58931904D01*
X137926666Y-59731904D02*
X137926666Y-58931904D01*
X137621904Y-58931904D01*
X137545714Y-58970000D01*
X137507619Y-59008095D01*
X137469523Y-59084285D01*
X137469523Y-59198571D01*
X137507619Y-59274761D01*
X137545714Y-59312857D01*
X137621904Y-59350952D01*
X137926666Y-59350952D01*
X137164761Y-59008095D02*
X137126666Y-58970000D01*
X137050476Y-58931904D01*
X136860000Y-58931904D01*
X136783809Y-58970000D01*
X136745714Y-59008095D01*
X136707619Y-59084285D01*
X136707619Y-59160476D01*
X136745714Y-59274761D01*
X137202857Y-59731904D01*
X136707619Y-59731904D01*
X136326666Y-59731904D02*
X136174285Y-59731904D01*
X136098095Y-59693809D01*
X136060000Y-59655714D01*
X135983809Y-59541428D01*
X135945714Y-59389047D01*
X135945714Y-59084285D01*
X135983809Y-59008095D01*
X136021904Y-58970000D01*
X136098095Y-58931904D01*
X136250476Y-58931904D01*
X136326666Y-58970000D01*
X136364761Y-59008095D01*
X136402857Y-59084285D01*
X136402857Y-59274761D01*
X136364761Y-59350952D01*
X136326666Y-59389047D01*
X136250476Y-59427142D01*
X136098095Y-59427142D01*
X136021904Y-59389047D01*
X135983809Y-59350952D01*
X135945714Y-59274761D01*
X131050476Y-94131904D02*
X130593333Y-94131904D01*
X130821904Y-94931904D02*
X130821904Y-94131904D01*
X130326666Y-94931904D02*
X130326666Y-94131904D01*
X130021904Y-94131904D01*
X129945714Y-94170000D01*
X129907619Y-94208095D01*
X129869523Y-94284285D01*
X129869523Y-94398571D01*
X129907619Y-94474761D01*
X129945714Y-94512857D01*
X130021904Y-94550952D01*
X130326666Y-94550952D01*
X129107619Y-94931904D02*
X129564761Y-94931904D01*
X129336190Y-94931904D02*
X129336190Y-94131904D01*
X129412380Y-94246190D01*
X129488571Y-94322380D01*
X129564761Y-94360476D01*
X128650476Y-94474761D02*
X128726666Y-94436666D01*
X128764761Y-94398571D01*
X128802857Y-94322380D01*
X128802857Y-94284285D01*
X128764761Y-94208095D01*
X128726666Y-94170000D01*
X128650476Y-94131904D01*
X128498095Y-94131904D01*
X128421904Y-94170000D01*
X128383809Y-94208095D01*
X128345714Y-94284285D01*
X128345714Y-94322380D01*
X128383809Y-94398571D01*
X128421904Y-94436666D01*
X128498095Y-94474761D01*
X128650476Y-94474761D01*
X128726666Y-94512857D01*
X128764761Y-94550952D01*
X128802857Y-94627142D01*
X128802857Y-94779523D01*
X128764761Y-94855714D01*
X128726666Y-94893809D01*
X128650476Y-94931904D01*
X128498095Y-94931904D01*
X128421904Y-94893809D01*
X128383809Y-94855714D01*
X128345714Y-94779523D01*
X128345714Y-94627142D01*
X128383809Y-94550952D01*
X128421904Y-94512857D01*
X128498095Y-94474761D01*
X145450476Y-57431904D02*
X144993333Y-57431904D01*
X145221904Y-58231904D02*
X145221904Y-57431904D01*
X144726666Y-58231904D02*
X144726666Y-57431904D01*
X144421904Y-57431904D01*
X144345714Y-57470000D01*
X144307619Y-57508095D01*
X144269523Y-57584285D01*
X144269523Y-57698571D01*
X144307619Y-57774761D01*
X144345714Y-57812857D01*
X144421904Y-57850952D01*
X144726666Y-57850952D01*
X144002857Y-57431904D02*
X143507619Y-57431904D01*
X143774285Y-57736666D01*
X143660000Y-57736666D01*
X143583809Y-57774761D01*
X143545714Y-57812857D01*
X143507619Y-57889047D01*
X143507619Y-58079523D01*
X143545714Y-58155714D01*
X143583809Y-58193809D01*
X143660000Y-58231904D01*
X143888571Y-58231904D01*
X143964761Y-58193809D01*
X144002857Y-58155714D01*
X143012380Y-57431904D02*
X142936190Y-57431904D01*
X142860000Y-57470000D01*
X142821904Y-57508095D01*
X142783809Y-57584285D01*
X142745714Y-57736666D01*
X142745714Y-57927142D01*
X142783809Y-58079523D01*
X142821904Y-58155714D01*
X142860000Y-58193809D01*
X142936190Y-58231904D01*
X143012380Y-58231904D01*
X143088571Y-58193809D01*
X143126666Y-58155714D01*
X143164761Y-58079523D01*
X143202857Y-57927142D01*
X143202857Y-57736666D01*
X143164761Y-57584285D01*
X143126666Y-57508095D01*
X143088571Y-57470000D01*
X143012380Y-57431904D01*
X170150476Y-63931904D02*
X169693333Y-63931904D01*
X169921904Y-64731904D02*
X169921904Y-63931904D01*
X169426666Y-64731904D02*
X169426666Y-63931904D01*
X169121904Y-63931904D01*
X169045714Y-63970000D01*
X169007619Y-64008095D01*
X168969523Y-64084285D01*
X168969523Y-64198571D01*
X169007619Y-64274761D01*
X169045714Y-64312857D01*
X169121904Y-64350952D01*
X169426666Y-64350952D01*
X168664761Y-64008095D02*
X168626666Y-63970000D01*
X168550476Y-63931904D01*
X168360000Y-63931904D01*
X168283809Y-63970000D01*
X168245714Y-64008095D01*
X168207619Y-64084285D01*
X168207619Y-64160476D01*
X168245714Y-64274761D01*
X168702857Y-64731904D01*
X168207619Y-64731904D01*
X167902857Y-64008095D02*
X167864761Y-63970000D01*
X167788571Y-63931904D01*
X167598095Y-63931904D01*
X167521904Y-63970000D01*
X167483809Y-64008095D01*
X167445714Y-64084285D01*
X167445714Y-64160476D01*
X167483809Y-64274761D01*
X167940952Y-64731904D01*
X167445714Y-64731904D01*
X133569523Y-95531904D02*
X133112380Y-95531904D01*
X133340952Y-96331904D02*
X133340952Y-95531904D01*
X132845714Y-96331904D02*
X132845714Y-95531904D01*
X132540952Y-95531904D01*
X132464761Y-95570000D01*
X132426666Y-95608095D01*
X132388571Y-95684285D01*
X132388571Y-95798571D01*
X132426666Y-95874761D01*
X132464761Y-95912857D01*
X132540952Y-95950952D01*
X132845714Y-95950952D01*
X131931428Y-95874761D02*
X132007619Y-95836666D01*
X132045714Y-95798571D01*
X132083809Y-95722380D01*
X132083809Y-95684285D01*
X132045714Y-95608095D01*
X132007619Y-95570000D01*
X131931428Y-95531904D01*
X131779047Y-95531904D01*
X131702857Y-95570000D01*
X131664761Y-95608095D01*
X131626666Y-95684285D01*
X131626666Y-95722380D01*
X131664761Y-95798571D01*
X131702857Y-95836666D01*
X131779047Y-95874761D01*
X131931428Y-95874761D01*
X132007619Y-95912857D01*
X132045714Y-95950952D01*
X132083809Y-96027142D01*
X132083809Y-96179523D01*
X132045714Y-96255714D01*
X132007619Y-96293809D01*
X131931428Y-96331904D01*
X131779047Y-96331904D01*
X131702857Y-96293809D01*
X131664761Y-96255714D01*
X131626666Y-96179523D01*
X131626666Y-96027142D01*
X131664761Y-95950952D01*
X131702857Y-95912857D01*
X131779047Y-95874761D01*
X165969523Y-84931904D02*
X165512380Y-84931904D01*
X165740952Y-85731904D02*
X165740952Y-84931904D01*
X165245714Y-85731904D02*
X165245714Y-84931904D01*
X164940952Y-84931904D01*
X164864761Y-84970000D01*
X164826666Y-85008095D01*
X164788571Y-85084285D01*
X164788571Y-85198571D01*
X164826666Y-85274761D01*
X164864761Y-85312857D01*
X164940952Y-85350952D01*
X165245714Y-85350952D01*
X164407619Y-85731904D02*
X164255238Y-85731904D01*
X164179047Y-85693809D01*
X164140952Y-85655714D01*
X164064761Y-85541428D01*
X164026666Y-85389047D01*
X164026666Y-85084285D01*
X164064761Y-85008095D01*
X164102857Y-84970000D01*
X164179047Y-84931904D01*
X164331428Y-84931904D01*
X164407619Y-84970000D01*
X164445714Y-85008095D01*
X164483809Y-85084285D01*
X164483809Y-85274761D01*
X164445714Y-85350952D01*
X164407619Y-85389047D01*
X164331428Y-85427142D01*
X164179047Y-85427142D01*
X164102857Y-85389047D01*
X164064761Y-85350952D01*
X164026666Y-85274761D01*
X169950476Y-91231904D02*
X169493333Y-91231904D01*
X169721904Y-92031904D02*
X169721904Y-91231904D01*
X169226666Y-92031904D02*
X169226666Y-91231904D01*
X168921904Y-91231904D01*
X168845714Y-91270000D01*
X168807619Y-91308095D01*
X168769523Y-91384285D01*
X168769523Y-91498571D01*
X168807619Y-91574761D01*
X168845714Y-91612857D01*
X168921904Y-91650952D01*
X169226666Y-91650952D01*
X168007619Y-92031904D02*
X168464761Y-92031904D01*
X168236190Y-92031904D02*
X168236190Y-91231904D01*
X168312380Y-91346190D01*
X168388571Y-91422380D01*
X168464761Y-91460476D01*
X167321904Y-91231904D02*
X167474285Y-91231904D01*
X167550476Y-91270000D01*
X167588571Y-91308095D01*
X167664761Y-91422380D01*
X167702857Y-91574761D01*
X167702857Y-91879523D01*
X167664761Y-91955714D01*
X167626666Y-91993809D01*
X167550476Y-92031904D01*
X167398095Y-92031904D01*
X167321904Y-91993809D01*
X167283809Y-91955714D01*
X167245714Y-91879523D01*
X167245714Y-91689047D01*
X167283809Y-91612857D01*
X167321904Y-91574761D01*
X167398095Y-91536666D01*
X167550476Y-91536666D01*
X167626666Y-91574761D01*
X167664761Y-91612857D01*
X167702857Y-91689047D01*
X110650476Y-59631904D02*
X110193333Y-59631904D01*
X110421904Y-60431904D02*
X110421904Y-59631904D01*
X109926666Y-60431904D02*
X109926666Y-59631904D01*
X109621904Y-59631904D01*
X109545714Y-59670000D01*
X109507619Y-59708095D01*
X109469523Y-59784285D01*
X109469523Y-59898571D01*
X109507619Y-59974761D01*
X109545714Y-60012857D01*
X109621904Y-60050952D01*
X109926666Y-60050952D01*
X109164761Y-59708095D02*
X109126666Y-59670000D01*
X109050476Y-59631904D01*
X108860000Y-59631904D01*
X108783809Y-59670000D01*
X108745714Y-59708095D01*
X108707619Y-59784285D01*
X108707619Y-59860476D01*
X108745714Y-59974761D01*
X109202857Y-60431904D01*
X108707619Y-60431904D01*
X107983809Y-59631904D02*
X108364761Y-59631904D01*
X108402857Y-60012857D01*
X108364761Y-59974761D01*
X108288571Y-59936666D01*
X108098095Y-59936666D01*
X108021904Y-59974761D01*
X107983809Y-60012857D01*
X107945714Y-60089047D01*
X107945714Y-60279523D01*
X107983809Y-60355714D01*
X108021904Y-60393809D01*
X108098095Y-60431904D01*
X108288571Y-60431904D01*
X108364761Y-60393809D01*
X108402857Y-60355714D01*
X123769523Y-79631904D02*
X123312380Y-79631904D01*
X123540952Y-80431904D02*
X123540952Y-79631904D01*
X123045714Y-80431904D02*
X123045714Y-79631904D01*
X122740952Y-79631904D01*
X122664761Y-79670000D01*
X122626666Y-79708095D01*
X122588571Y-79784285D01*
X122588571Y-79898571D01*
X122626666Y-79974761D01*
X122664761Y-80012857D01*
X122740952Y-80050952D01*
X123045714Y-80050952D01*
X121864761Y-79631904D02*
X122245714Y-79631904D01*
X122283809Y-80012857D01*
X122245714Y-79974761D01*
X122169523Y-79936666D01*
X121979047Y-79936666D01*
X121902857Y-79974761D01*
X121864761Y-80012857D01*
X121826666Y-80089047D01*
X121826666Y-80279523D01*
X121864761Y-80355714D01*
X121902857Y-80393809D01*
X121979047Y-80431904D01*
X122169523Y-80431904D01*
X122245714Y-80393809D01*
X122283809Y-80355714D01*
X170250476Y-58931904D02*
X169793333Y-58931904D01*
X170021904Y-59731904D02*
X170021904Y-58931904D01*
X169526666Y-59731904D02*
X169526666Y-58931904D01*
X169221904Y-58931904D01*
X169145714Y-58970000D01*
X169107619Y-59008095D01*
X169069523Y-59084285D01*
X169069523Y-59198571D01*
X169107619Y-59274761D01*
X169145714Y-59312857D01*
X169221904Y-59350952D01*
X169526666Y-59350952D01*
X168764761Y-59008095D02*
X168726666Y-58970000D01*
X168650476Y-58931904D01*
X168460000Y-58931904D01*
X168383809Y-58970000D01*
X168345714Y-59008095D01*
X168307619Y-59084285D01*
X168307619Y-59160476D01*
X168345714Y-59274761D01*
X168802857Y-59731904D01*
X168307619Y-59731904D01*
X168040952Y-58931904D02*
X167545714Y-58931904D01*
X167812380Y-59236666D01*
X167698095Y-59236666D01*
X167621904Y-59274761D01*
X167583809Y-59312857D01*
X167545714Y-59389047D01*
X167545714Y-59579523D01*
X167583809Y-59655714D01*
X167621904Y-59693809D01*
X167698095Y-59731904D01*
X167926666Y-59731904D01*
X168002857Y-59693809D01*
X168040952Y-59655714D01*
X107550476Y-66483904D02*
X107093333Y-66483904D01*
X107321904Y-67283904D02*
X107321904Y-66483904D01*
X106826666Y-67283904D02*
X106826666Y-66483904D01*
X106521904Y-66483904D01*
X106445714Y-66522000D01*
X106407619Y-66560095D01*
X106369523Y-66636285D01*
X106369523Y-66750571D01*
X106407619Y-66826761D01*
X106445714Y-66864857D01*
X106521904Y-66902952D01*
X106826666Y-66902952D01*
X106064761Y-66560095D02*
X106026666Y-66522000D01*
X105950476Y-66483904D01*
X105760000Y-66483904D01*
X105683809Y-66522000D01*
X105645714Y-66560095D01*
X105607619Y-66636285D01*
X105607619Y-66712476D01*
X105645714Y-66826761D01*
X106102857Y-67283904D01*
X105607619Y-67283904D01*
X105340952Y-66483904D02*
X104807619Y-66483904D01*
X105150476Y-67283904D01*
X162750476Y-91031904D02*
X162293333Y-91031904D01*
X162521904Y-91831904D02*
X162521904Y-91031904D01*
X162026666Y-91831904D02*
X162026666Y-91031904D01*
X161721904Y-91031904D01*
X161645714Y-91070000D01*
X161607619Y-91108095D01*
X161569523Y-91184285D01*
X161569523Y-91298571D01*
X161607619Y-91374761D01*
X161645714Y-91412857D01*
X161721904Y-91450952D01*
X162026666Y-91450952D01*
X160807619Y-91831904D02*
X161264761Y-91831904D01*
X161036190Y-91831904D02*
X161036190Y-91031904D01*
X161112380Y-91146190D01*
X161188571Y-91222380D01*
X161264761Y-91260476D01*
X160540952Y-91031904D02*
X160045714Y-91031904D01*
X160312380Y-91336666D01*
X160198095Y-91336666D01*
X160121904Y-91374761D01*
X160083809Y-91412857D01*
X160045714Y-91489047D01*
X160045714Y-91679523D01*
X160083809Y-91755714D01*
X160121904Y-91793809D01*
X160198095Y-91831904D01*
X160426666Y-91831904D01*
X160502857Y-91793809D01*
X160540952Y-91755714D01*
X181150476Y-94031904D02*
X180693333Y-94031904D01*
X180921904Y-94831904D02*
X180921904Y-94031904D01*
X180426666Y-94831904D02*
X180426666Y-94031904D01*
X180121904Y-94031904D01*
X180045714Y-94070000D01*
X180007619Y-94108095D01*
X179969523Y-94184285D01*
X179969523Y-94298571D01*
X180007619Y-94374761D01*
X180045714Y-94412857D01*
X180121904Y-94450952D01*
X180426666Y-94450952D01*
X179207619Y-94831904D02*
X179664761Y-94831904D01*
X179436190Y-94831904D02*
X179436190Y-94031904D01*
X179512380Y-94146190D01*
X179588571Y-94222380D01*
X179664761Y-94260476D01*
X178483809Y-94031904D02*
X178864761Y-94031904D01*
X178902857Y-94412857D01*
X178864761Y-94374761D01*
X178788571Y-94336666D01*
X178598095Y-94336666D01*
X178521904Y-94374761D01*
X178483809Y-94412857D01*
X178445714Y-94489047D01*
X178445714Y-94679523D01*
X178483809Y-94755714D01*
X178521904Y-94793809D01*
X178598095Y-94831904D01*
X178788571Y-94831904D01*
X178864761Y-94793809D01*
X178902857Y-94755714D01*
X150569523Y-77083904D02*
X150112380Y-77083904D01*
X150340952Y-77883904D02*
X150340952Y-77083904D01*
X149845714Y-77883904D02*
X149845714Y-77083904D01*
X149540952Y-77083904D01*
X149464761Y-77122000D01*
X149426666Y-77160095D01*
X149388571Y-77236285D01*
X149388571Y-77350571D01*
X149426666Y-77426761D01*
X149464761Y-77464857D01*
X149540952Y-77502952D01*
X149845714Y-77502952D01*
X148702857Y-77083904D02*
X148855238Y-77083904D01*
X148931428Y-77122000D01*
X148969523Y-77160095D01*
X149045714Y-77274380D01*
X149083809Y-77426761D01*
X149083809Y-77731523D01*
X149045714Y-77807714D01*
X149007619Y-77845809D01*
X148931428Y-77883904D01*
X148779047Y-77883904D01*
X148702857Y-77845809D01*
X148664761Y-77807714D01*
X148626666Y-77731523D01*
X148626666Y-77541047D01*
X148664761Y-77464857D01*
X148702857Y-77426761D01*
X148779047Y-77388666D01*
X148931428Y-77388666D01*
X149007619Y-77426761D01*
X149045714Y-77464857D01*
X149083809Y-77541047D01*
X128069523Y-97231904D02*
X127612380Y-97231904D01*
X127840952Y-98031904D02*
X127840952Y-97231904D01*
X127345714Y-98031904D02*
X127345714Y-97231904D01*
X127040952Y-97231904D01*
X126964761Y-97270000D01*
X126926666Y-97308095D01*
X126888571Y-97384285D01*
X126888571Y-97498571D01*
X126926666Y-97574761D01*
X126964761Y-97612857D01*
X127040952Y-97650952D01*
X127345714Y-97650952D01*
X126202857Y-97498571D02*
X126202857Y-98031904D01*
X126393333Y-97193809D02*
X126583809Y-97765238D01*
X126088571Y-97765238D01*
X181150476Y-72831904D02*
X180693333Y-72831904D01*
X180921904Y-73631904D02*
X180921904Y-72831904D01*
X180426666Y-73631904D02*
X180426666Y-72831904D01*
X180121904Y-72831904D01*
X180045714Y-72870000D01*
X180007619Y-72908095D01*
X179969523Y-72984285D01*
X179969523Y-73098571D01*
X180007619Y-73174761D01*
X180045714Y-73212857D01*
X180121904Y-73250952D01*
X180426666Y-73250952D01*
X179207619Y-73631904D02*
X179664761Y-73631904D01*
X179436190Y-73631904D02*
X179436190Y-72831904D01*
X179512380Y-72946190D01*
X179588571Y-73022380D01*
X179664761Y-73060476D01*
X178826666Y-73631904D02*
X178674285Y-73631904D01*
X178598095Y-73593809D01*
X178560000Y-73555714D01*
X178483809Y-73441428D01*
X178445714Y-73289047D01*
X178445714Y-72984285D01*
X178483809Y-72908095D01*
X178521904Y-72870000D01*
X178598095Y-72831904D01*
X178750476Y-72831904D01*
X178826666Y-72870000D01*
X178864761Y-72908095D01*
X178902857Y-72984285D01*
X178902857Y-73174761D01*
X178864761Y-73250952D01*
X178826666Y-73289047D01*
X178750476Y-73327142D01*
X178598095Y-73327142D01*
X178521904Y-73289047D01*
X178483809Y-73250952D01*
X178445714Y-73174761D01*
X124269523Y-97231904D02*
X123812380Y-97231904D01*
X124040952Y-98031904D02*
X124040952Y-97231904D01*
X123545714Y-98031904D02*
X123545714Y-97231904D01*
X123240952Y-97231904D01*
X123164761Y-97270000D01*
X123126666Y-97308095D01*
X123088571Y-97384285D01*
X123088571Y-97498571D01*
X123126666Y-97574761D01*
X123164761Y-97612857D01*
X123240952Y-97650952D01*
X123545714Y-97650952D01*
X122821904Y-97231904D02*
X122326666Y-97231904D01*
X122593333Y-97536666D01*
X122479047Y-97536666D01*
X122402857Y-97574761D01*
X122364761Y-97612857D01*
X122326666Y-97689047D01*
X122326666Y-97879523D01*
X122364761Y-97955714D01*
X122402857Y-97993809D01*
X122479047Y-98031904D01*
X122707619Y-98031904D01*
X122783809Y-97993809D01*
X122821904Y-97955714D01*
X161450476Y-89331904D02*
X160993333Y-89331904D01*
X161221904Y-90131904D02*
X161221904Y-89331904D01*
X160726666Y-90131904D02*
X160726666Y-89331904D01*
X160421904Y-89331904D01*
X160345714Y-89370000D01*
X160307619Y-89408095D01*
X160269523Y-89484285D01*
X160269523Y-89598571D01*
X160307619Y-89674761D01*
X160345714Y-89712857D01*
X160421904Y-89750952D01*
X160726666Y-89750952D01*
X159507619Y-90131904D02*
X159964761Y-90131904D01*
X159736190Y-90131904D02*
X159736190Y-89331904D01*
X159812380Y-89446190D01*
X159888571Y-89522380D01*
X159964761Y-89560476D01*
X158745714Y-90131904D02*
X159202857Y-90131904D01*
X158974285Y-90131904D02*
X158974285Y-89331904D01*
X159050476Y-89446190D01*
X159126666Y-89522380D01*
X159202857Y-89560476D01*
X166250476Y-87131904D02*
X165793333Y-87131904D01*
X166021904Y-87931904D02*
X166021904Y-87131904D01*
X165526666Y-87931904D02*
X165526666Y-87131904D01*
X165221904Y-87131904D01*
X165145714Y-87170000D01*
X165107619Y-87208095D01*
X165069523Y-87284285D01*
X165069523Y-87398571D01*
X165107619Y-87474761D01*
X165145714Y-87512857D01*
X165221904Y-87550952D01*
X165526666Y-87550952D01*
X164307619Y-87931904D02*
X164764761Y-87931904D01*
X164536190Y-87931904D02*
X164536190Y-87131904D01*
X164612380Y-87246190D01*
X164688571Y-87322380D01*
X164764761Y-87360476D01*
X163812380Y-87131904D02*
X163736190Y-87131904D01*
X163660000Y-87170000D01*
X163621904Y-87208095D01*
X163583809Y-87284285D01*
X163545714Y-87436666D01*
X163545714Y-87627142D01*
X163583809Y-87779523D01*
X163621904Y-87855714D01*
X163660000Y-87893809D01*
X163736190Y-87931904D01*
X163812380Y-87931904D01*
X163888571Y-87893809D01*
X163926666Y-87855714D01*
X163964761Y-87779523D01*
X164002857Y-87627142D01*
X164002857Y-87436666D01*
X163964761Y-87284285D01*
X163926666Y-87208095D01*
X163888571Y-87170000D01*
X163812380Y-87131904D01*
X181150476Y-90231904D02*
X180693333Y-90231904D01*
X180921904Y-91031904D02*
X180921904Y-90231904D01*
X180426666Y-91031904D02*
X180426666Y-90231904D01*
X180121904Y-90231904D01*
X180045714Y-90270000D01*
X180007619Y-90308095D01*
X179969523Y-90384285D01*
X179969523Y-90498571D01*
X180007619Y-90574761D01*
X180045714Y-90612857D01*
X180121904Y-90650952D01*
X180426666Y-90650952D01*
X179207619Y-91031904D02*
X179664761Y-91031904D01*
X179436190Y-91031904D02*
X179436190Y-90231904D01*
X179512380Y-90346190D01*
X179588571Y-90422380D01*
X179664761Y-90460476D01*
X178940952Y-90231904D02*
X178407619Y-90231904D01*
X178750476Y-91031904D01*
X160350476Y-93931904D02*
X159893333Y-93931904D01*
X160121904Y-94731904D02*
X160121904Y-93931904D01*
X159626666Y-94731904D02*
X159626666Y-93931904D01*
X159321904Y-93931904D01*
X159245714Y-93970000D01*
X159207619Y-94008095D01*
X159169523Y-94084285D01*
X159169523Y-94198571D01*
X159207619Y-94274761D01*
X159245714Y-94312857D01*
X159321904Y-94350952D01*
X159626666Y-94350952D01*
X158407619Y-94731904D02*
X158864761Y-94731904D01*
X158636190Y-94731904D02*
X158636190Y-93931904D01*
X158712380Y-94046190D01*
X158788571Y-94122380D01*
X158864761Y-94160476D01*
X158102857Y-94008095D02*
X158064761Y-93970000D01*
X157988571Y-93931904D01*
X157798095Y-93931904D01*
X157721904Y-93970000D01*
X157683809Y-94008095D01*
X157645714Y-94084285D01*
X157645714Y-94160476D01*
X157683809Y-94274761D01*
X158140952Y-94731904D01*
X157645714Y-94731904D01*
X181150476Y-87131904D02*
X180693333Y-87131904D01*
X180921904Y-87931904D02*
X180921904Y-87131904D01*
X180426666Y-87931904D02*
X180426666Y-87131904D01*
X180121904Y-87131904D01*
X180045714Y-87170000D01*
X180007619Y-87208095D01*
X179969523Y-87284285D01*
X179969523Y-87398571D01*
X180007619Y-87474761D01*
X180045714Y-87512857D01*
X180121904Y-87550952D01*
X180426666Y-87550952D01*
X179207619Y-87931904D02*
X179664761Y-87931904D01*
X179436190Y-87931904D02*
X179436190Y-87131904D01*
X179512380Y-87246190D01*
X179588571Y-87322380D01*
X179664761Y-87360476D01*
X178521904Y-87398571D02*
X178521904Y-87931904D01*
X178712380Y-87093809D02*
X178902857Y-87665238D01*
X178407619Y-87665238D01*
X141050476Y-64131904D02*
X140593333Y-64131904D01*
X140821904Y-64931904D02*
X140821904Y-64131904D01*
X140326666Y-64931904D02*
X140326666Y-64131904D01*
X140021904Y-64131904D01*
X139945714Y-64170000D01*
X139907619Y-64208095D01*
X139869523Y-64284285D01*
X139869523Y-64398571D01*
X139907619Y-64474761D01*
X139945714Y-64512857D01*
X140021904Y-64550952D01*
X140326666Y-64550952D01*
X139564761Y-64208095D02*
X139526666Y-64170000D01*
X139450476Y-64131904D01*
X139260000Y-64131904D01*
X139183809Y-64170000D01*
X139145714Y-64208095D01*
X139107619Y-64284285D01*
X139107619Y-64360476D01*
X139145714Y-64474761D01*
X139602857Y-64931904D01*
X139107619Y-64931904D01*
X138650476Y-64474761D02*
X138726666Y-64436666D01*
X138764761Y-64398571D01*
X138802857Y-64322380D01*
X138802857Y-64284285D01*
X138764761Y-64208095D01*
X138726666Y-64170000D01*
X138650476Y-64131904D01*
X138498095Y-64131904D01*
X138421904Y-64170000D01*
X138383809Y-64208095D01*
X138345714Y-64284285D01*
X138345714Y-64322380D01*
X138383809Y-64398571D01*
X138421904Y-64436666D01*
X138498095Y-64474761D01*
X138650476Y-64474761D01*
X138726666Y-64512857D01*
X138764761Y-64550952D01*
X138802857Y-64627142D01*
X138802857Y-64779523D01*
X138764761Y-64855714D01*
X138726666Y-64893809D01*
X138650476Y-64931904D01*
X138498095Y-64931904D01*
X138421904Y-64893809D01*
X138383809Y-64855714D01*
X138345714Y-64779523D01*
X138345714Y-64627142D01*
X138383809Y-64550952D01*
X138421904Y-64512857D01*
X138498095Y-64474761D01*
X106850476Y-52083904D02*
X106393333Y-52083904D01*
X106621904Y-52883904D02*
X106621904Y-52083904D01*
X106126666Y-52883904D02*
X106126666Y-52083904D01*
X105821904Y-52083904D01*
X105745714Y-52122000D01*
X105707619Y-52160095D01*
X105669523Y-52236285D01*
X105669523Y-52350571D01*
X105707619Y-52426761D01*
X105745714Y-52464857D01*
X105821904Y-52502952D01*
X106126666Y-52502952D01*
X105364761Y-52160095D02*
X105326666Y-52122000D01*
X105250476Y-52083904D01*
X105060000Y-52083904D01*
X104983809Y-52122000D01*
X104945714Y-52160095D01*
X104907619Y-52236285D01*
X104907619Y-52312476D01*
X104945714Y-52426761D01*
X105402857Y-52883904D01*
X104907619Y-52883904D01*
X104221904Y-52083904D02*
X104374285Y-52083904D01*
X104450476Y-52122000D01*
X104488571Y-52160095D01*
X104564761Y-52274380D01*
X104602857Y-52426761D01*
X104602857Y-52731523D01*
X104564761Y-52807714D01*
X104526666Y-52845809D01*
X104450476Y-52883904D01*
X104298095Y-52883904D01*
X104221904Y-52845809D01*
X104183809Y-52807714D01*
X104145714Y-52731523D01*
X104145714Y-52541047D01*
X104183809Y-52464857D01*
X104221904Y-52426761D01*
X104298095Y-52388666D01*
X104450476Y-52388666D01*
X104526666Y-52426761D01*
X104564761Y-52464857D01*
X104602857Y-52541047D01*
X181150476Y-78531904D02*
X180693333Y-78531904D01*
X180921904Y-79331904D02*
X180921904Y-78531904D01*
X180426666Y-79331904D02*
X180426666Y-78531904D01*
X180121904Y-78531904D01*
X180045714Y-78570000D01*
X180007619Y-78608095D01*
X179969523Y-78684285D01*
X179969523Y-78798571D01*
X180007619Y-78874761D01*
X180045714Y-78912857D01*
X180121904Y-78950952D01*
X180426666Y-78950952D01*
X179664761Y-78608095D02*
X179626666Y-78570000D01*
X179550476Y-78531904D01*
X179360000Y-78531904D01*
X179283809Y-78570000D01*
X179245714Y-78608095D01*
X179207619Y-78684285D01*
X179207619Y-78760476D01*
X179245714Y-78874761D01*
X179702857Y-79331904D01*
X179207619Y-79331904D01*
X178445714Y-79331904D02*
X178902857Y-79331904D01*
X178674285Y-79331904D02*
X178674285Y-78531904D01*
X178750476Y-78646190D01*
X178826666Y-78722380D01*
X178902857Y-78760476D01*
X164250476Y-59531904D02*
X163793333Y-59531904D01*
X164021904Y-60331904D02*
X164021904Y-59531904D01*
X163526666Y-60331904D02*
X163526666Y-59531904D01*
X163221904Y-59531904D01*
X163145714Y-59570000D01*
X163107619Y-59608095D01*
X163069523Y-59684285D01*
X163069523Y-59798571D01*
X163107619Y-59874761D01*
X163145714Y-59912857D01*
X163221904Y-59950952D01*
X163526666Y-59950952D01*
X162764761Y-59608095D02*
X162726666Y-59570000D01*
X162650476Y-59531904D01*
X162460000Y-59531904D01*
X162383809Y-59570000D01*
X162345714Y-59608095D01*
X162307619Y-59684285D01*
X162307619Y-59760476D01*
X162345714Y-59874761D01*
X162802857Y-60331904D01*
X162307619Y-60331904D01*
X161621904Y-59798571D02*
X161621904Y-60331904D01*
X161812380Y-59493809D02*
X162002857Y-60065238D01*
X161507619Y-60065238D01*
D12*
X130360000Y-99470000D02*
G75*
G03*
X130360000Y-99470000I-700000J0D01*
G01*
X121460000Y-92570000D02*
G75*
G03*
X121460000Y-92570000I-700000J0D01*
G01*
X177960000Y-83070000D02*
G75*
G03*
X177960000Y-83070000I-700000J0D01*
G01*
X121460000Y-95070000D02*
G75*
G03*
X121460000Y-95070000I-700000J0D01*
G01*
X140360000Y-59370000D02*
G75*
G03*
X140360000Y-59370000I-700000J0D01*
G01*
X130360000Y-96070000D02*
G75*
G03*
X130360000Y-96070000I-700000J0D01*
G01*
X144760000Y-59370000D02*
G75*
G03*
X144760000Y-59370000I-700000J0D01*
G01*
X171860000Y-64370000D02*
G75*
G03*
X171860000Y-64370000I-700000J0D01*
G01*
X132560000Y-97470000D02*
G75*
G03*
X132560000Y-97470000I-700000J0D01*
G01*
X163160000Y-85370000D02*
G75*
G03*
X163160000Y-85370000I-700000J0D01*
G01*
X166760000Y-91470000D02*
G75*
G03*
X166760000Y-91470000I-700000J0D01*
G01*
X107460000Y-60070000D02*
G75*
G03*
X107460000Y-60070000I-700000J0D01*
G01*
X121460000Y-80070000D02*
G75*
G03*
X121460000Y-80070000I-700000J0D01*
G01*
X169660000Y-60970000D02*
G75*
G03*
X169660000Y-60970000I-700000J0D01*
G01*
X106860000Y-68370000D02*
G75*
G03*
X106860000Y-68370000I-700000J0D01*
G01*
X164360000Y-91970000D02*
G75*
G03*
X164360000Y-91970000I-700000J0D01*
G01*
X177960000Y-94470000D02*
G75*
G03*
X177960000Y-94470000I-700000J0D01*
G01*
X150260000Y-78970000D02*
G75*
G03*
X150260000Y-78970000I-700000J0D01*
G01*
X127760000Y-96070000D02*
G75*
G03*
X127760000Y-96070000I-700000J0D01*
G01*
X177960000Y-73270000D02*
G75*
G03*
X177960000Y-73270000I-700000J0D01*
G01*
X123960000Y-96070000D02*
G75*
G03*
X123960000Y-96070000I-700000J0D01*
G01*
X163160000Y-89770000D02*
G75*
G03*
X163160000Y-89770000I-700000J0D01*
G01*
X163160000Y-87570000D02*
G75*
G03*
X163160000Y-87570000I-700000J0D01*
G01*
X177960000Y-90670000D02*
G75*
G03*
X177960000Y-90670000I-700000J0D01*
G01*
X162160000Y-94370000D02*
G75*
G03*
X162160000Y-94370000I-700000J0D01*
G01*
X177960000Y-87570000D02*
G75*
G03*
X177960000Y-87570000I-700000J0D01*
G01*
X140360000Y-62970000D02*
G75*
G03*
X140360000Y-62970000I-700000J0D01*
G01*
X106160000Y-53970000D02*
G75*
G03*
X106160000Y-53970000I-700000J0D01*
G01*
X177960000Y-78970000D02*
G75*
G03*
X177960000Y-78970000I-700000J0D01*
G01*
X163560000Y-61470000D02*
G75*
G03*
X163560000Y-61470000I-700000J0D01*
G01*
%LPC*%
D13*
X100000000Y-51740000D03*
X171120000Y-100000000D03*
D14*
X139500000Y-54400000D03*
D15*
X139500000Y-51860000D03*
X142040000Y-54400000D03*
X142040000Y-51860000D03*
X144580000Y-54400000D03*
X144580000Y-51860000D03*
X147120000Y-54400000D03*
X147120000Y-51860000D03*
X149660000Y-54400000D03*
X149660000Y-51860000D03*
X152200000Y-54400000D03*
X152200000Y-51860000D03*
X154740000Y-54400000D03*
X154740000Y-51860000D03*
X157280000Y-54400000D03*
X157280000Y-51860000D03*
X159820000Y-54400000D03*
X159820000Y-51860000D03*
X162360000Y-54400000D03*
X162360000Y-51860000D03*
D16*
X93110000Y-65870000D03*
D17*
X93110000Y-59870000D03*
D18*
X93835000Y-58550000D03*
X93835000Y-67190000D03*
D19*
X90010000Y-58550000D03*
X90010000Y-67190000D03*
D13*
X100000000Y-100000000D03*
X171120000Y-51740000D03*
D20*
X162360000Y-97390000D03*
D15*
X162360000Y-99930000D03*
X159820000Y-97390000D03*
X159820000Y-99930000D03*
X157280000Y-97390000D03*
X157280000Y-99930000D03*
X154740000Y-97390000D03*
X154740000Y-99930000D03*
X152200000Y-97390000D03*
X152200000Y-99930000D03*
X149660000Y-97390000D03*
X149660000Y-99930000D03*
X147120000Y-97390000D03*
X147120000Y-99930000D03*
X144580000Y-97390000D03*
X144580000Y-99930000D03*
X142040000Y-97390000D03*
X142040000Y-99930000D03*
X139500000Y-97390000D03*
X139500000Y-99930000D03*
D21*
X94630000Y-91915000D03*
X94630000Y-80485000D03*
D22*
X97680000Y-93975000D03*
X97680000Y-78425000D03*
D23*
X91250000Y-92525000D03*
X89730000Y-89985000D03*
X91250000Y-82415000D03*
X89730000Y-79875000D03*
D24*
X100970000Y-81755000D03*
D25*
X103510000Y-83025000D03*
X100970000Y-84295000D03*
X103510000Y-85565000D03*
X100970000Y-86835000D03*
X103510000Y-88105000D03*
X100970000Y-89375000D03*
X103510000Y-90645000D03*
D26*
X112447500Y-53820000D03*
D15*
X114987500Y-53820000D03*
X112447500Y-56360000D03*
X114987500Y-56360000D03*
X112447500Y-58900000D03*
X114987500Y-58900000D03*
X112447500Y-61440000D03*
X114987500Y-61440000D03*
X112447500Y-63980000D03*
X114987500Y-63980000D03*
D27*
X129660000Y-99470000D03*
X120760000Y-92570000D03*
X177260000Y-83070000D03*
X120760000Y-95070000D03*
X139660000Y-59370000D03*
X129660000Y-96070000D03*
X144060000Y-59370000D03*
X171160000Y-64370000D03*
X131860000Y-97470000D03*
X162460000Y-85370000D03*
X166060000Y-91470000D03*
X106760000Y-60070000D03*
X120760000Y-80070000D03*
X168960000Y-60970000D03*
X106160000Y-68370000D03*
X163660000Y-91970000D03*
X177260000Y-94470000D03*
X149560000Y-78970000D03*
X127060000Y-96070000D03*
X177260000Y-73270000D03*
X123260000Y-96070000D03*
X162460000Y-89770000D03*
X162460000Y-87570000D03*
X177260000Y-90670000D03*
X161460000Y-94370000D03*
X177260000Y-87570000D03*
X139660000Y-62970000D03*
X105460000Y-53970000D03*
X177260000Y-78970000D03*
X162860000Y-61470000D03*
M02*
