%TF.GenerationSoftware,KiCad,Pcbnew,(5.99.0-11707-g9aa9857685)*%
%TF.CreationDate,2021-10-10T10:39:49+03:00*%
%TF.ProjectId,RubyLink_revA,52756279-4c69-46e6-9b5f-726576412e6b,rev?*%
%TF.SameCoordinates,Original*%
%TF.FileFunction,Paste,Top*%
%TF.FilePolarity,Positive*%
%FSLAX46Y46*%
G04 Gerber Fmt 4.6, Leading zero omitted, Abs format (unit mm)*
G04 Created by KiCad (PCBNEW (5.99.0-11707-g9aa9857685)) date 2021-10-10 10:39:49*
%MOMM*%
%LPD*%
G01*
G04 APERTURE LIST*
G04 Aperture macros list*
%AMRoundRect*
0 Rectangle with rounded corners*
0 $1 Rounding radius*
0 $2 $3 $4 $5 $6 $7 $8 $9 X,Y pos of 4 corners*
0 Add a 4 corners polygon primitive as box body*
4,1,4,$2,$3,$4,$5,$6,$7,$8,$9,$2,$3,0*
0 Add four circle primitives for the rounded corners*
1,1,$1+$1,$2,$3*
1,1,$1+$1,$4,$5*
1,1,$1+$1,$6,$7*
1,1,$1+$1,$8,$9*
0 Add four rect primitives between the rounded corners*
20,1,$1+$1,$2,$3,$4,$5,0*
20,1,$1+$1,$4,$5,$6,$7,0*
20,1,$1+$1,$6,$7,$8,$9,0*
20,1,$1+$1,$8,$9,$2,$3,0*%
G04 Aperture macros list end*
%ADD10RoundRect,0.140000X0.170000X-0.140000X0.170000X0.140000X-0.170000X0.140000X-0.170000X-0.140000X0*%
%ADD11RoundRect,0.140000X-0.170000X0.140000X-0.170000X-0.140000X0.170000X-0.140000X0.170000X0.140000X0*%
%ADD12RoundRect,0.150000X0.512500X0.150000X-0.512500X0.150000X-0.512500X-0.150000X0.512500X-0.150000X0*%
%ADD13R,1.000000X2.300000*%
%ADD14RoundRect,0.150000X-0.587500X-0.150000X0.587500X-0.150000X0.587500X0.150000X-0.587500X0.150000X0*%
%ADD15RoundRect,0.140000X0.140000X0.170000X-0.140000X0.170000X-0.140000X-0.170000X0.140000X-0.170000X0*%
%ADD16R,0.300000X0.800000*%
%ADD17RoundRect,0.150000X-0.650000X-0.150000X0.650000X-0.150000X0.650000X0.150000X-0.650000X0.150000X0*%
%ADD18RoundRect,0.135000X-0.135000X-0.185000X0.135000X-0.185000X0.135000X0.185000X-0.135000X0.185000X0*%
%ADD19RoundRect,0.135000X0.135000X0.185000X-0.135000X0.185000X-0.135000X-0.185000X0.135000X-0.185000X0*%
%ADD20RoundRect,0.200000X0.200000X0.275000X-0.200000X0.275000X-0.200000X-0.275000X0.200000X-0.275000X0*%
%ADD21RoundRect,0.150000X0.587500X0.150000X-0.587500X0.150000X-0.587500X-0.150000X0.587500X-0.150000X0*%
%ADD22RoundRect,0.140000X-0.140000X-0.170000X0.140000X-0.170000X0.140000X0.170000X-0.140000X0.170000X0*%
%ADD23RoundRect,0.218750X0.218750X0.256250X-0.218750X0.256250X-0.218750X-0.256250X0.218750X-0.256250X0*%
%ADD24RoundRect,0.135000X0.185000X-0.135000X0.185000X0.135000X-0.185000X0.135000X-0.185000X-0.135000X0*%
%ADD25R,2.000000X1.000000*%
%ADD26R,1.000000X0.520000*%
%ADD27R,1.000000X0.270000*%
%ADD28RoundRect,0.150000X0.150000X-0.587500X0.150000X0.587500X-0.150000X0.587500X-0.150000X-0.587500X0*%
%ADD29RoundRect,0.218750X-0.218750X-0.256250X0.218750X-0.256250X0.218750X0.256250X-0.218750X0.256250X0*%
%ADD30R,1.200000X1.400000*%
%ADD31RoundRect,0.135000X-0.185000X0.135000X-0.185000X-0.135000X0.185000X-0.135000X0.185000X0.135000X0*%
%ADD32RoundRect,0.150000X0.150000X-0.512500X0.150000X0.512500X-0.150000X0.512500X-0.150000X-0.512500X0*%
%ADD33RoundRect,0.225000X0.250000X-0.225000X0.250000X0.225000X-0.250000X0.225000X-0.250000X-0.225000X0*%
%ADD34RoundRect,0.225000X0.225000X0.250000X-0.225000X0.250000X-0.225000X-0.250000X0.225000X-0.250000X0*%
%ADD35RoundRect,0.150000X0.825000X0.150000X-0.825000X0.150000X-0.825000X-0.150000X0.825000X-0.150000X0*%
%ADD36RoundRect,0.150000X0.150000X-0.875000X0.150000X0.875000X-0.150000X0.875000X-0.150000X-0.875000X0*%
%ADD37RoundRect,0.250000X-0.292217X-0.292217X0.292217X-0.292217X0.292217X0.292217X-0.292217X0.292217X0*%
%ADD38RoundRect,0.050000X-0.387500X-0.050000X0.387500X-0.050000X0.387500X0.050000X-0.387500X0.050000X0*%
%ADD39RoundRect,0.050000X-0.050000X-0.387500X0.050000X-0.387500X0.050000X0.387500X-0.050000X0.387500X0*%
%ADD40R,2.100000X1.400000*%
%ADD41RoundRect,0.249999X0.450001X1.450001X-0.450001X1.450001X-0.450001X-1.450001X0.450001X-1.450001X0*%
%ADD42RoundRect,0.075000X-0.662500X-0.075000X0.662500X-0.075000X0.662500X0.075000X-0.662500X0.075000X0*%
%ADD43RoundRect,0.075000X-0.075000X-0.662500X0.075000X-0.662500X0.075000X0.662500X-0.075000X0.662500X0*%
%ADD44RoundRect,0.225000X-0.225000X-0.250000X0.225000X-0.250000X0.225000X0.250000X-0.225000X0.250000X0*%
%ADD45RoundRect,0.250000X-0.312500X-0.625000X0.312500X-0.625000X0.312500X0.625000X-0.312500X0.625000X0*%
%ADD46RoundRect,0.218750X0.381250X-0.218750X0.381250X0.218750X-0.381250X0.218750X-0.381250X-0.218750X0*%
%ADD47R,1.400000X1.200000*%
%ADD48R,2.700000X0.800000*%
%ADD49RoundRect,0.150000X-0.150000X0.875000X-0.150000X-0.875000X0.150000X-0.875000X0.150000X0.875000X0*%
%ADD50RoundRect,0.249999X-0.450001X-1.450001X0.450001X-1.450001X0.450001X1.450001X-0.450001X1.450001X0*%
%ADD51RoundRect,0.225000X-0.250000X0.225000X-0.250000X-0.225000X0.250000X-0.225000X0.250000X0.225000X0*%
G04 APERTURE END LIST*
D10*
X101300000Y-58880000D03*
X101300000Y-57920000D03*
D11*
X145233133Y-88500000D03*
X145233133Y-89460000D03*
D12*
X113997500Y-95720000D03*
X113997500Y-94770000D03*
X113997500Y-93820000D03*
X111722500Y-93820000D03*
X111722500Y-95720000D03*
D13*
X121980000Y-64100000D03*
X124520000Y-64100000D03*
X129600000Y-64100000D03*
X129600000Y-54700000D03*
X121980000Y-54700000D03*
D14*
X130462500Y-95650000D03*
X130462500Y-97550000D03*
X132337500Y-96600000D03*
D15*
X143713133Y-91480000D03*
X142753133Y-91480000D03*
D16*
X154470000Y-90897500D03*
X153970000Y-90897500D03*
X153470000Y-90897500D03*
X152970000Y-90897500D03*
X152970000Y-93997500D03*
X153470000Y-93997500D03*
X153970000Y-93997500D03*
X154470000Y-93997500D03*
D17*
X129100000Y-75995000D03*
X129100000Y-77265000D03*
X129100000Y-78535000D03*
X129100000Y-79805000D03*
X136300000Y-79805000D03*
X136300000Y-78535000D03*
X136300000Y-77265000D03*
X136300000Y-75995000D03*
D18*
X161590000Y-61600000D03*
X162610000Y-61600000D03*
D19*
X178870000Y-96170000D03*
X177850000Y-96170000D03*
D20*
X115050000Y-81970000D03*
X113400000Y-81970000D03*
D21*
X159597500Y-95150000D03*
X159597500Y-93250000D03*
X157722500Y-94200000D03*
D22*
X117020000Y-88500000D03*
X117980000Y-88500000D03*
D10*
X163860000Y-95080000D03*
X163860000Y-94120000D03*
D21*
X159837500Y-91650000D03*
X159837500Y-89750000D03*
X157962500Y-90700000D03*
D10*
X154100000Y-60880000D03*
X154100000Y-59920000D03*
D19*
X119860000Y-71870000D03*
X118840000Y-71870000D03*
D15*
X136980000Y-56500000D03*
X136020000Y-56500000D03*
D20*
X115025000Y-78770000D03*
X113375000Y-78770000D03*
D11*
X154100000Y-57720000D03*
X154100000Y-58680000D03*
D10*
X150500000Y-60880000D03*
X150500000Y-59920000D03*
D23*
X178847500Y-87870000D03*
X177272500Y-87870000D03*
D10*
X130300000Y-87280000D03*
X130300000Y-86320000D03*
X150033133Y-78160000D03*
X150033133Y-77200000D03*
D20*
X115050000Y-83570000D03*
X113400000Y-83570000D03*
D24*
X146633133Y-78190000D03*
X146633133Y-77170000D03*
D14*
X130462500Y-92150000D03*
X130462500Y-94050000D03*
X132337500Y-93100000D03*
D10*
X143300000Y-60880000D03*
X143300000Y-59920000D03*
D19*
X178870000Y-84570000D03*
X177850000Y-84570000D03*
D15*
X137480000Y-62300000D03*
X136520000Y-62300000D03*
D10*
X151920000Y-91827500D03*
X151920000Y-90867500D03*
D24*
X172600000Y-61110000D03*
X172600000Y-60090000D03*
D25*
X90010000Y-61470000D03*
X90010000Y-64270000D03*
D26*
X94210000Y-59770000D03*
X94210000Y-60520000D03*
D27*
X94210000Y-61120000D03*
X94210000Y-62620000D03*
X94210000Y-63620000D03*
X94210000Y-64620000D03*
D26*
X94210000Y-65220000D03*
X94210000Y-65970000D03*
X94210000Y-65970000D03*
X94210000Y-65220000D03*
D27*
X94210000Y-64120000D03*
X94210000Y-63120000D03*
X94210000Y-62120000D03*
X94210000Y-61620000D03*
D26*
X94210000Y-60520000D03*
X94210000Y-59770000D03*
D10*
X137580000Y-91680000D03*
X137580000Y-90720000D03*
X151133133Y-80560000D03*
X151133133Y-79600000D03*
D28*
X165050000Y-60037500D03*
X166950000Y-60037500D03*
X166000000Y-58162500D03*
D19*
X178870000Y-74470000D03*
X177850000Y-74470000D03*
D29*
X121272500Y-47870000D03*
X122847500Y-47870000D03*
D23*
X178847500Y-97870000D03*
X177272500Y-97870000D03*
D10*
X173700000Y-62980000D03*
X173700000Y-62020000D03*
D30*
X135750000Y-84600000D03*
X135750000Y-86800000D03*
X137450000Y-86800000D03*
X137450000Y-84600000D03*
D28*
X161550000Y-60037500D03*
X163450000Y-60037500D03*
X162500000Y-58162500D03*
D18*
X154140000Y-95250000D03*
X155160000Y-95250000D03*
D31*
X127500000Y-75440000D03*
X127500000Y-76460000D03*
D28*
X158050000Y-60037500D03*
X159950000Y-60037500D03*
X159000000Y-58162500D03*
D32*
X103650000Y-61537500D03*
X104600000Y-61537500D03*
X105550000Y-61537500D03*
X105550000Y-59262500D03*
X103650000Y-59262500D03*
D29*
X121272500Y-71870000D03*
X122847500Y-71870000D03*
D33*
X131600000Y-87575000D03*
X131600000Y-86025000D03*
D18*
X138190000Y-95500000D03*
X139210000Y-95500000D03*
D19*
X178870000Y-94570000D03*
X177850000Y-94570000D03*
D34*
X107175000Y-57500000D03*
X105625000Y-57500000D03*
D10*
X117900000Y-87480000D03*
X117900000Y-86520000D03*
D19*
X150360000Y-95250000D03*
X149340000Y-95250000D03*
D35*
X162475000Y-88045000D03*
X162475000Y-86775000D03*
X162475000Y-85505000D03*
X162475000Y-84235000D03*
X162475000Y-82965000D03*
X162475000Y-81695000D03*
X162475000Y-80425000D03*
X162475000Y-79155000D03*
X157525000Y-79155000D03*
X157525000Y-80425000D03*
X157525000Y-81695000D03*
X157525000Y-82965000D03*
X157525000Y-84235000D03*
X157525000Y-85505000D03*
X157525000Y-86775000D03*
X157525000Y-88045000D03*
D24*
X147633133Y-78190000D03*
X147633133Y-77170000D03*
D10*
X146233133Y-89460000D03*
X146233133Y-88500000D03*
D19*
X178870000Y-86270000D03*
X177850000Y-86270000D03*
D22*
X123120000Y-91500000D03*
X124080000Y-91500000D03*
D11*
X138000000Y-75920000D03*
X138000000Y-76880000D03*
D10*
X155520000Y-94027500D03*
X155520000Y-93067500D03*
D20*
X111585000Y-87670000D03*
X109935000Y-87670000D03*
D11*
X146900000Y-57720000D03*
X146900000Y-58680000D03*
D20*
X115050000Y-86800000D03*
X113400000Y-86800000D03*
D18*
X145490000Y-56300000D03*
X146510000Y-56300000D03*
D34*
X124175000Y-93300000D03*
X122625000Y-93300000D03*
D11*
X155730000Y-88080000D03*
X155730000Y-89040000D03*
D19*
X144610000Y-56300000D03*
X143590000Y-56300000D03*
D36*
X136530000Y-73580000D03*
X137800000Y-73580000D03*
X139070000Y-73580000D03*
X140340000Y-73580000D03*
X141610000Y-73580000D03*
X142880000Y-73580000D03*
X144150000Y-73580000D03*
X145420000Y-73580000D03*
X145420000Y-64280000D03*
X144150000Y-64280000D03*
X142880000Y-64280000D03*
X141610000Y-64280000D03*
X140340000Y-64280000D03*
X139070000Y-64280000D03*
X137800000Y-64280000D03*
X136530000Y-64280000D03*
D18*
X96790000Y-60400000D03*
X97810000Y-60400000D03*
D19*
X145243133Y-90480000D03*
X144223133Y-90480000D03*
D23*
X178847500Y-72870000D03*
X177272500Y-72870000D03*
D31*
X172900000Y-57130000D03*
X172900000Y-58150000D03*
D16*
X150870000Y-90897500D03*
X150370000Y-90897500D03*
X149870000Y-90897500D03*
X149370000Y-90897500D03*
X149370000Y-93997500D03*
X149870000Y-93997500D03*
X150370000Y-93997500D03*
X150870000Y-93997500D03*
D10*
X141200000Y-91380000D03*
X141200000Y-90420000D03*
D12*
X100697500Y-63720000D03*
X100697500Y-62770000D03*
X100697500Y-61820000D03*
X98422500Y-61820000D03*
X98422500Y-62770000D03*
X98422500Y-63720000D03*
D21*
X170937500Y-58550000D03*
X170937500Y-56650000D03*
X169062500Y-57600000D03*
D10*
X125500000Y-92480000D03*
X125500000Y-91520000D03*
D22*
X121220000Y-91500000D03*
X122180000Y-91500000D03*
D12*
X177437500Y-62950000D03*
X177437500Y-62000000D03*
X177437500Y-61050000D03*
X175162500Y-61050000D03*
X175162500Y-62950000D03*
D31*
X128860000Y-95460000D03*
X128860000Y-96480000D03*
D33*
X127160000Y-97345000D03*
X127160000Y-95795000D03*
D12*
X167597500Y-95050000D03*
X167597500Y-94100000D03*
X167597500Y-93150000D03*
X165322500Y-93150000D03*
X165322500Y-95050000D03*
D22*
X110045000Y-89000000D03*
X111005000Y-89000000D03*
D16*
X140130000Y-90947500D03*
X139630000Y-90947500D03*
X139130000Y-90947500D03*
X138630000Y-90947500D03*
X138630000Y-94047500D03*
X139130000Y-94047500D03*
X139630000Y-94047500D03*
X140130000Y-94047500D03*
D15*
X148580000Y-62400000D03*
X147620000Y-62400000D03*
D19*
X148410000Y-56300000D03*
X147390000Y-56300000D03*
D31*
X169160000Y-94090000D03*
X169160000Y-95110000D03*
D20*
X115425000Y-90400000D03*
X113775000Y-90400000D03*
D11*
X148633133Y-77200000D03*
X148633133Y-78160000D03*
D24*
X115460000Y-96780000D03*
X115460000Y-95760000D03*
D37*
X146070633Y-82942500D03*
X146070633Y-84217500D03*
X144795633Y-82942500D03*
X144795633Y-84217500D03*
D38*
X141995633Y-80980000D03*
X141995633Y-81380000D03*
X141995633Y-81780000D03*
X141995633Y-82180000D03*
X141995633Y-82580000D03*
X141995633Y-82980000D03*
X141995633Y-83380000D03*
X141995633Y-83780000D03*
X141995633Y-84180000D03*
X141995633Y-84580000D03*
X141995633Y-84980000D03*
X141995633Y-85380000D03*
X141995633Y-85780000D03*
X141995633Y-86180000D03*
D39*
X142833133Y-87017500D03*
X143233133Y-87017500D03*
X143633133Y-87017500D03*
X144033133Y-87017500D03*
X144433133Y-87017500D03*
X144833133Y-87017500D03*
X145233133Y-87017500D03*
X145633133Y-87017500D03*
X146033133Y-87017500D03*
X146433133Y-87017500D03*
X146833133Y-87017500D03*
X147233133Y-87017500D03*
X147633133Y-87017500D03*
X148033133Y-87017500D03*
D38*
X148870633Y-86180000D03*
X148870633Y-85780000D03*
X148870633Y-85380000D03*
X148870633Y-84980000D03*
X148870633Y-84580000D03*
X148870633Y-84180000D03*
X148870633Y-83780000D03*
X148870633Y-83380000D03*
X148870633Y-82980000D03*
X148870633Y-82580000D03*
X148870633Y-82180000D03*
X148870633Y-81780000D03*
X148870633Y-81380000D03*
X148870633Y-80980000D03*
D39*
X148033133Y-80142500D03*
X147633133Y-80142500D03*
X147233133Y-80142500D03*
X146833133Y-80142500D03*
X146433133Y-80142500D03*
X146033133Y-80142500D03*
X145633133Y-80142500D03*
X145233133Y-80142500D03*
X144833133Y-80142500D03*
X144433133Y-80142500D03*
X144033133Y-80142500D03*
X143633133Y-80142500D03*
X143233133Y-80142500D03*
X142833133Y-80142500D03*
D22*
X127220000Y-91500000D03*
X128180000Y-91500000D03*
D19*
X164910000Y-61600000D03*
X163890000Y-61600000D03*
D21*
X165037500Y-91550000D03*
X165037500Y-89650000D03*
X163162500Y-90600000D03*
D19*
X119870000Y-95870000D03*
X118850000Y-95870000D03*
D16*
X147950000Y-60850000D03*
X148450000Y-60850000D03*
X148950000Y-60850000D03*
X149450000Y-60850000D03*
X149450000Y-57750000D03*
X148950000Y-57750000D03*
X148450000Y-57750000D03*
X147950000Y-57750000D03*
X151550000Y-60850000D03*
X152050000Y-60850000D03*
X152550000Y-60850000D03*
X153050000Y-60850000D03*
X153050000Y-57750000D03*
X152550000Y-57750000D03*
X152050000Y-57750000D03*
X151550000Y-57750000D03*
D20*
X111585000Y-84070000D03*
X109935000Y-84070000D03*
D15*
X148455000Y-75580000D03*
X147495000Y-75580000D03*
D16*
X136530000Y-90947500D03*
X136030000Y-90947500D03*
X135530000Y-90947500D03*
X135030000Y-90947500D03*
X135030000Y-94047500D03*
X135530000Y-94047500D03*
X136030000Y-94047500D03*
X136530000Y-94047500D03*
D22*
X150153133Y-84580000D03*
X151113133Y-84580000D03*
D10*
X141200000Y-94580000D03*
X141200000Y-93620000D03*
D11*
X150500000Y-57720000D03*
X150500000Y-58680000D03*
D10*
X155520000Y-91827500D03*
X155520000Y-90867500D03*
D40*
X116010000Y-104020000D03*
X106910000Y-104020000D03*
X116010000Y-99520000D03*
X106910000Y-99520000D03*
D24*
X131300000Y-84810000D03*
X131300000Y-83790000D03*
D19*
X137120000Y-95500000D03*
X136100000Y-95500000D03*
D10*
X145533133Y-78160000D03*
X145533133Y-77200000D03*
D16*
X144350000Y-60850000D03*
X144850000Y-60850000D03*
X145350000Y-60850000D03*
X145850000Y-60850000D03*
X145850000Y-57750000D03*
X145350000Y-57750000D03*
X144850000Y-57750000D03*
X144350000Y-57750000D03*
D11*
X144533133Y-77200000D03*
X144533133Y-78160000D03*
D41*
X94312500Y-73650000D03*
X90212500Y-73650000D03*
D42*
X119937500Y-83050000D03*
X119937500Y-83550000D03*
X119937500Y-84050000D03*
X119937500Y-84550000D03*
X119937500Y-85050000D03*
X119937500Y-85550000D03*
X119937500Y-86050000D03*
X119937500Y-86550000D03*
X119937500Y-87050000D03*
X119937500Y-87550000D03*
X119937500Y-88050000D03*
X119937500Y-88550000D03*
D43*
X121350000Y-89962500D03*
X121850000Y-89962500D03*
X122350000Y-89962500D03*
X122850000Y-89962500D03*
X123350000Y-89962500D03*
X123850000Y-89962500D03*
X124350000Y-89962500D03*
X124850000Y-89962500D03*
X125350000Y-89962500D03*
X125850000Y-89962500D03*
X126350000Y-89962500D03*
X126850000Y-89962500D03*
D42*
X128262500Y-88550000D03*
X128262500Y-88050000D03*
X128262500Y-87550000D03*
X128262500Y-87050000D03*
X128262500Y-86550000D03*
X128262500Y-86050000D03*
X128262500Y-85550000D03*
X128262500Y-85050000D03*
X128262500Y-84550000D03*
X128262500Y-84050000D03*
X128262500Y-83550000D03*
X128262500Y-83050000D03*
D43*
X126850000Y-81637500D03*
X126350000Y-81637500D03*
X125850000Y-81637500D03*
X125350000Y-81637500D03*
X124850000Y-81637500D03*
X124350000Y-81637500D03*
X123850000Y-81637500D03*
X123350000Y-81637500D03*
X122850000Y-81637500D03*
X122350000Y-81637500D03*
X121850000Y-81637500D03*
X121350000Y-81637500D03*
D31*
X118900000Y-90090000D03*
X118900000Y-91110000D03*
D29*
X121272500Y-95870000D03*
X122847500Y-95870000D03*
D33*
X139900000Y-59775000D03*
X139900000Y-58225000D03*
D24*
X103600000Y-57820000D03*
X103600000Y-56800000D03*
D19*
X121170000Y-49270000D03*
X120150000Y-49270000D03*
X177870000Y-64270000D03*
X176850000Y-64270000D03*
X160010000Y-56600000D03*
X158990000Y-56600000D03*
D44*
X129985000Y-52170000D03*
X131535000Y-52170000D03*
D45*
X90300000Y-70400000D03*
X93225000Y-70400000D03*
D19*
X178870000Y-76170000D03*
X177850000Y-76170000D03*
D34*
X124175000Y-66400000D03*
X122625000Y-66400000D03*
D31*
X115460000Y-92760000D03*
X115460000Y-93780000D03*
D22*
X166420000Y-75630000D03*
X167380000Y-75630000D03*
D19*
X118810000Y-92470000D03*
X117790000Y-92470000D03*
D34*
X104935000Y-67400000D03*
X103385000Y-67400000D03*
D11*
X134300000Y-83820000D03*
X134300000Y-84780000D03*
D46*
X125360000Y-97432500D03*
X125360000Y-95307500D03*
D23*
X178847500Y-77870000D03*
X177272500Y-77870000D03*
D31*
X126450000Y-75440000D03*
X126450000Y-76460000D03*
D15*
X114780000Y-89000000D03*
X113820000Y-89000000D03*
D36*
X147455000Y-73580000D03*
X148725000Y-73580000D03*
X149995000Y-73580000D03*
X151265000Y-73580000D03*
X152535000Y-73580000D03*
X153805000Y-73580000D03*
X155075000Y-73580000D03*
X156345000Y-73580000D03*
X156345000Y-64280000D03*
X155075000Y-64280000D03*
X153805000Y-64280000D03*
X152535000Y-64280000D03*
X151265000Y-64280000D03*
X149995000Y-64280000D03*
X148725000Y-64280000D03*
X147455000Y-64280000D03*
D24*
X172600000Y-63010000D03*
X172600000Y-61990000D03*
D31*
X161500000Y-90090000D03*
X161500000Y-91110000D03*
D20*
X115085000Y-85170000D03*
X113435000Y-85170000D03*
D19*
X151800000Y-56300000D03*
X150780000Y-56300000D03*
X133310000Y-83800000D03*
X132290000Y-83800000D03*
D22*
X166320000Y-62330000D03*
X167280000Y-62330000D03*
D15*
X140713133Y-84580000D03*
X139753133Y-84580000D03*
D24*
X161260000Y-95110000D03*
X161260000Y-94090000D03*
D47*
X145233133Y-92930000D03*
X143033133Y-92930000D03*
X143033133Y-94630000D03*
X145233133Y-94630000D03*
D22*
X167120000Y-89400000D03*
X168080000Y-89400000D03*
D18*
X131890000Y-90800000D03*
X132910000Y-90800000D03*
D48*
X106610000Y-63600000D03*
X106610000Y-65800000D03*
D11*
X134300000Y-85720000D03*
X134300000Y-86680000D03*
D19*
X153710000Y-56300000D03*
X152690000Y-56300000D03*
D35*
X170475000Y-88045000D03*
X170475000Y-86775000D03*
X170475000Y-85505000D03*
X170475000Y-84235000D03*
X170475000Y-82965000D03*
X170475000Y-81695000D03*
X170475000Y-80425000D03*
X170475000Y-79155000D03*
X165525000Y-79155000D03*
X165525000Y-80425000D03*
X165525000Y-81695000D03*
X165525000Y-82965000D03*
X165525000Y-84235000D03*
X165525000Y-85505000D03*
X165525000Y-86775000D03*
X165525000Y-88045000D03*
D10*
X151920000Y-94027500D03*
X151920000Y-93067500D03*
D11*
X110260000Y-93790000D03*
X110260000Y-94750000D03*
D49*
X167345000Y-64280000D03*
X166075000Y-64280000D03*
X164805000Y-64280000D03*
X163535000Y-64280000D03*
X162265000Y-64280000D03*
X160995000Y-64280000D03*
X159725000Y-64280000D03*
X158455000Y-64280000D03*
X158455000Y-73580000D03*
X159725000Y-73580000D03*
X160995000Y-73580000D03*
X162265000Y-73580000D03*
X163535000Y-73580000D03*
X164805000Y-73580000D03*
X166075000Y-73580000D03*
X167345000Y-73580000D03*
D19*
X152960000Y-95250000D03*
X151940000Y-95250000D03*
D33*
X97100000Y-58975000D03*
X97100000Y-57425000D03*
D10*
X137580000Y-94077500D03*
X137580000Y-93117500D03*
D20*
X115025000Y-80370000D03*
X113375000Y-80370000D03*
D22*
X145253133Y-91480000D03*
X146213133Y-91480000D03*
D23*
X178847500Y-82870000D03*
X177272500Y-82870000D03*
D50*
X96800000Y-73650000D03*
X100900000Y-73650000D03*
D11*
X150133133Y-79300000D03*
X150133133Y-80260000D03*
D23*
X178847500Y-92870000D03*
X177272500Y-92870000D03*
D18*
X158090000Y-61600000D03*
X159110000Y-61600000D03*
D21*
X170937500Y-62050000D03*
X170937500Y-60150000D03*
X169062500Y-61100000D03*
D18*
X117790000Y-93500000D03*
X118810000Y-93500000D03*
D51*
X134000000Y-59725000D03*
X134000000Y-61275000D03*
D24*
X102300000Y-58910000D03*
X102300000Y-57890000D03*
D22*
X110645000Y-86400000D03*
X111605000Y-86400000D03*
X110645000Y-85400000D03*
X111605000Y-85400000D03*
D11*
X143300000Y-57720000D03*
X143300000Y-58680000D03*
D31*
X133900000Y-92090000D03*
X133900000Y-93110000D03*
D11*
X134800000Y-73200000D03*
X134800000Y-74160000D03*
D24*
X161500000Y-93110000D03*
X161500000Y-92090000D03*
D11*
X117900000Y-83820000D03*
X117900000Y-84780000D03*
D10*
X146900000Y-60880000D03*
X146900000Y-59920000D03*
D19*
X156710000Y-56500000D03*
X155690000Y-56500000D03*
D18*
X98150000Y-65070000D03*
X99170000Y-65070000D03*
D12*
X138037500Y-59750000D03*
X138037500Y-58800000D03*
X138037500Y-57850000D03*
X135762500Y-57850000D03*
X135762500Y-59750000D03*
D21*
X177037500Y-58590000D03*
X177037500Y-56690000D03*
X175162500Y-57640000D03*
D40*
X129822500Y-104020000D03*
X120722500Y-104020000D03*
X129822500Y-99520000D03*
X120722500Y-99520000D03*
D18*
X147250000Y-95270000D03*
X148270000Y-95270000D03*
D16*
X155150000Y-60850000D03*
X155650000Y-60850000D03*
X156150000Y-60850000D03*
X156650000Y-60850000D03*
X156650000Y-57750000D03*
X156150000Y-57750000D03*
X155650000Y-57750000D03*
X155150000Y-57750000D03*
D10*
X140733133Y-80780000D03*
X140733133Y-79820000D03*
M02*
