%TF.GenerationSoftware,KiCad,Pcbnew,(5.99.0-11707-g9aa9857685)*%
%TF.CreationDate,2021-10-10T10:39:49+03:00*%
%TF.ProjectId,RubyLink_revA,52756279-4c69-46e6-9b5f-726576412e6b,rev?*%
%TF.SameCoordinates,Original*%
%TF.FileFunction,Soldermask,Bot*%
%TF.FilePolarity,Negative*%
%FSLAX46Y46*%
G04 Gerber Fmt 4.6, Leading zero omitted, Abs format (unit mm)*
G04 Created by KiCad (PCBNEW (5.99.0-11707-g9aa9857685)) date 2021-10-10 10:39:49*
%MOMM*%
%LPD*%
G01*
G04 APERTURE LIST*
G04 Aperture macros list*
%AMRoundRect*
0 Rectangle with rounded corners*
0 $1 Rounding radius*
0 $2 $3 $4 $5 $6 $7 $8 $9 X,Y pos of 4 corners*
0 Add a 4 corners polygon primitive as box body*
4,1,4,$2,$3,$4,$5,$6,$7,$8,$9,$2,$3,0*
0 Add four circle primitives for the rounded corners*
1,1,$1+$1,$2,$3*
1,1,$1+$1,$4,$5*
1,1,$1+$1,$6,$7*
1,1,$1+$1,$8,$9*
0 Add four rect primitives between the rounded corners*
20,1,$1+$1,$2,$3,$4,$5,0*
20,1,$1+$1,$4,$5,$6,$7,0*
20,1,$1+$1,$6,$7,$8,$9,0*
20,1,$1+$1,$8,$9,$2,$3,0*%
G04 Aperture macros list end*
%ADD10C,2.800000*%
%ADD11RoundRect,0.300000X0.600000X-0.600000X0.600000X0.600000X-0.600000X0.600000X-0.600000X-0.600000X0*%
%ADD12C,1.800000*%
%ADD13O,0.700000X0.950000*%
%ADD14C,0.700000*%
%ADD15O,2.400000X1.400000*%
%ADD16O,2.700000X1.400000*%
%ADD17RoundRect,0.300000X-0.600000X0.600000X-0.600000X-0.600000X0.600000X-0.600000X0.600000X0.600000X0*%
%ADD18C,3.350000*%
%ADD19C,2.700000*%
%ADD20C,1.990000*%
%ADD21RoundRect,0.050000X-0.950000X0.950000X-0.950000X-0.950000X0.950000X-0.950000X0.950000X0.950000X0*%
%ADD22C,2.000000*%
%ADD23RoundRect,0.300000X-0.600000X-0.600000X0.600000X-0.600000X0.600000X0.600000X-0.600000X0.600000X0*%
%ADD24C,1.100000*%
G04 APERTURE END LIST*
D10*
X100000000Y-51740000D03*
X171120000Y-100000000D03*
D11*
X139500000Y-54400000D03*
D12*
X139500000Y-51860000D03*
X142040000Y-54400000D03*
X142040000Y-51860000D03*
X144580000Y-54400000D03*
X144580000Y-51860000D03*
X147120000Y-54400000D03*
X147120000Y-51860000D03*
X149660000Y-54400000D03*
X149660000Y-51860000D03*
X152200000Y-54400000D03*
X152200000Y-51860000D03*
X154740000Y-54400000D03*
X154740000Y-51860000D03*
X157280000Y-54400000D03*
X157280000Y-51860000D03*
X159820000Y-54400000D03*
X159820000Y-51860000D03*
X162360000Y-54400000D03*
X162360000Y-51860000D03*
D13*
X93110000Y-65870000D03*
D14*
X93110000Y-59870000D03*
D15*
X93835000Y-58550000D03*
X93835000Y-67190000D03*
D16*
X90010000Y-58550000D03*
X90010000Y-67190000D03*
D10*
X100000000Y-100000000D03*
X171120000Y-51740000D03*
D17*
X162360000Y-97390000D03*
D12*
X162360000Y-99930000D03*
X159820000Y-97390000D03*
X159820000Y-99930000D03*
X157280000Y-97390000D03*
X157280000Y-99930000D03*
X154740000Y-97390000D03*
X154740000Y-99930000D03*
X152200000Y-97390000D03*
X152200000Y-99930000D03*
X149660000Y-97390000D03*
X149660000Y-99930000D03*
X147120000Y-97390000D03*
X147120000Y-99930000D03*
X144580000Y-97390000D03*
X144580000Y-99930000D03*
X142040000Y-97390000D03*
X142040000Y-99930000D03*
X139500000Y-97390000D03*
X139500000Y-99930000D03*
D18*
X94630000Y-91915000D03*
X94630000Y-80485000D03*
D19*
X97680000Y-93975000D03*
X97680000Y-78425000D03*
D20*
X91250000Y-92525000D03*
X89730000Y-89985000D03*
X91250000Y-82415000D03*
X89730000Y-79875000D03*
D21*
X100970000Y-81755000D03*
D22*
X103510000Y-83025000D03*
X100970000Y-84295000D03*
X103510000Y-85565000D03*
X100970000Y-86835000D03*
X103510000Y-88105000D03*
X100970000Y-89375000D03*
X103510000Y-90645000D03*
D23*
X112447500Y-53820000D03*
D12*
X114987500Y-53820000D03*
X112447500Y-56360000D03*
X114987500Y-56360000D03*
X112447500Y-58900000D03*
X114987500Y-58900000D03*
X112447500Y-61440000D03*
X114987500Y-61440000D03*
X112447500Y-63980000D03*
X114987500Y-63980000D03*
D24*
X129660000Y-99470000D03*
X120760000Y-92570000D03*
X177260000Y-83070000D03*
X120760000Y-95070000D03*
X139660000Y-59370000D03*
X129660000Y-96070000D03*
X144060000Y-59370000D03*
X171160000Y-64370000D03*
X131860000Y-97470000D03*
X162460000Y-85370000D03*
X166060000Y-91470000D03*
X106760000Y-60070000D03*
X120760000Y-80070000D03*
X168960000Y-60970000D03*
X106160000Y-68370000D03*
X163660000Y-91970000D03*
X177260000Y-94470000D03*
X149560000Y-78970000D03*
X127060000Y-96070000D03*
X177260000Y-73270000D03*
X123260000Y-96070000D03*
X162460000Y-89770000D03*
X162460000Y-87570000D03*
X177260000Y-90670000D03*
X161460000Y-94370000D03*
X177260000Y-87570000D03*
X139660000Y-62970000D03*
X105460000Y-53970000D03*
X177260000Y-78970000D03*
X162860000Y-61470000D03*
M02*
