M48
; DRILL file {KiCad (6.0.7)} date Mon Aug 15 19:03:43 2022
; FORMAT={-:-/ absolute / metric / decimal}
; #@! TF.CreationDate,2022-08-15T19:03:43+05:00
; #@! TF.GenerationSoftware,Kicad,Pcbnew,(6.0.7)
; #@! TF.FileFunction,Plated,1,4,PTH
FMAT,2
METRIC
; #@! TA.AperFunction,Plated,PTH,ViaDrill
T1C0.300
; #@! TA.AperFunction,Plated,PTH,ComponentDrill
T2C0.350
; #@! TA.AperFunction,Plated,PTH,ViaDrill
T3C0.500
; #@! TA.AperFunction,Plated,PTH,ComponentDrill
T4C0.700
; #@! TA.AperFunction,Plated,PTH,ComponentDrill
T5C0.890
; #@! TA.AperFunction,Plated,PTH,ComponentDrill
T6C0.900
; #@! TA.AperFunction,Plated,PTH,ComponentDrill
T7C0.920
; #@! TA.AperFunction,Plated,PTH,ComponentDrill
T8C1.000
; #@! TA.AperFunction,Plated,PTH,ComponentDrill
T9C1.600
; #@! TA.AperFunction,Plated,PTH,ComponentDrill
T10C2.300
%
G90
G05
T1
X89.06Y-71.62
X90.06Y-71.62
X91.06Y-71.62
X97.46Y-66.67
X98.31Y-67.62
X98.31Y-68.62
X98.31Y-72.67
X98.31Y-75.62
X98.36Y-71.57
X99.31Y-75.62
X99.36Y-71.57
X99.36Y-72.67
X101.36Y-58.27
X101.36Y-59.27
X101.36Y-60.27
X101.36Y-64.47
X101.36Y-65.67
X101.56Y-69.47
X101.56Y-70.37
X101.56Y-71.27
X102.46Y-58.27
X102.46Y-69.47
X102.46Y-70.37
X102.46Y-71.27
X102.56Y-64.47
X102.56Y-65.67
X103.36Y-69.47
X103.36Y-70.37
X103.36Y-71.27
X103.56Y-58.27
X103.61Y-57.27
X103.66Y-48.27
X103.66Y-49.37
X103.66Y-50.47
X103.66Y-51.57
X103.66Y-52.67
X104.16Y-61.07
X104.36Y-70.019
X104.76Y-48.27
X104.76Y-49.37
X104.76Y-64.77
X104.76Y-67.07
X105.16Y-61.07
X105.16Y-62.07
X105.16Y-70.019
X105.76Y-57.72
X105.76Y-60.07
X105.86Y-47.17
X105.86Y-48.27
X105.86Y-49.37
X106.66Y-67.07
X106.96Y-47.17
X106.96Y-48.27
X106.96Y-49.37
X107.06Y-69.67
X107.06Y-71.87
X107.06Y-76.87
X107.06Y-80.12
X107.06Y-82.12
X107.06Y-84.87
X107.06Y-86.87
X107.06Y-90.87
X107.06Y-92.87
X107.06Y-97.87
X107.06Y-101.87
X107.31Y-57.72
X107.56Y-55.47
X107.76Y-63.37
X107.81Y-59.37
X108.06Y-49.37
X108.06Y-51.87
X108.06Y-52.87
X108.06Y-54.47
X108.06Y-56.37
X108.06Y-58.37
X108.26Y-84.87
X108.26Y-86.87
X108.56Y-69.67
X108.56Y-71.87
X108.56Y-76.87
X108.9Y-84.1
X108.9Y-87.7
X109.06Y-80.12
X109.06Y-90.87
X109.06Y-92.87
X109.06Y-97.87
X109.06Y-101.87
X109.06Y-103.87
X109.31Y-75.37
X109.46Y-93.77
X109.46Y-94.77
X109.81Y-55.37
X109.81Y-57.37
X109.81Y-59.37
X109.81Y-61.37
X109.81Y-63.37
X109.81Y-82.12
X110.0Y-89.8
X110.06Y-76.87
X110.26Y-93.07
X110.26Y-95.47
X110.66Y-73.87
X111.06Y-89.87
X111.06Y-90.87
X111.06Y-101.8
X111.06Y-103.87
X111.56Y-66.37
X111.56Y-67.62
X111.56Y-74.77
X111.81Y-79.37
X112.8Y-89.0
X112.81Y-66.37
X112.81Y-67.62
X112.81Y-75.17
X112.81Y-77.37
X113.06Y-97.87
X113.06Y-103.87
X114.06Y-66.37
X114.06Y-67.62
X114.06Y-68.87
X114.06Y-70.12
X114.06Y-75.17
X114.66Y-92.77
X114.66Y-96.77
X114.76Y-88.17
X114.96Y-73.67
X115.06Y-97.87
X115.06Y-101.87
X115.26Y-94.77
X115.56Y-75.12
X115.56Y-77.37
X115.66Y-89.37
X116.0Y-78.8
X116.0Y-83.6
X116.16Y-66.17
X116.26Y-88.47
X116.36Y-90.37
X116.46Y-97.97
X116.86Y-92.47
X117.06Y-77.67
X117.1Y-83.8
X117.1Y-84.8
X117.1Y-86.5
X117.1Y-87.5
X117.16Y-94.47
X117.96Y-77.67
X118.0Y-89.3
X118.06Y-91.17
X118.16Y-66.17
X118.26Y-71.87
X118.693Y-95.303
X119.06Y-99.87
X119.06Y-103.87
X119.46Y-73.67
X119.56Y-58.77
X119.56Y-60.37
X119.6Y-92.3
X119.6Y-93.5
X119.76Y-61.97
X119.81Y-81.87
X120.31Y-48.37
X120.31Y-49.87
X120.31Y-51.37
X120.36Y-71.17
X120.4Y-91.5
X120.76Y-78.67
X121.56Y-60.37
X121.56Y-83.37
X121.56Y-85.12
X121.56Y-86.87
X121.81Y-48.37
X121.81Y-49.87
X122.045Y-92.346
X122.26Y-78.67
X123.06Y-48.37
X123.06Y-59.62
X123.06Y-71.17
X123.06Y-103.87
X123.16Y-52.97
X123.16Y-72.87
X123.16Y-88.47
X123.26Y-92.37
X123.4Y-80.2
X123.56Y-83.37
X123.56Y-85.12
X123.56Y-86.87
X123.86Y-53.97
X124.16Y-71.17
X124.16Y-79.77
X124.26Y-92.245
X124.31Y-48.37
X124.31Y-59.62
X124.31Y-61.12
X124.36Y-88.47
X124.56Y-52.97
X124.56Y-98.87
X124.56Y-99.87
X124.86Y-78.67
X125.06Y-103.87
X125.26Y-55.27
X125.26Y-56.27
X125.5Y-93.2
X125.56Y-75.37
X125.56Y-98.87
X125.56Y-99.87
X126.4Y-92.1
X126.46Y-73.27
X126.5Y-83.4
X126.56Y-98.37
X126.56Y-99.37
X126.66Y-55.27
X126.66Y-56.27
X126.96Y-93.67
X126.96Y-94.67
X127.0Y-85.0
X127.06Y-103.87
X127.56Y-98.37
X127.6Y-81.2
X127.7Y-79.8
X127.81Y-73.27
X127.96Y-94.67
X128.46Y-92.3
X128.66Y-81.07
X128.8Y-89.7
X128.96Y-94.67
X129.06Y-73.27
X129.46Y-55.17
X129.46Y-56.17
X129.46Y-57.17
X129.46Y-58.37
X129.46Y-60.37
X129.56Y-59.37
X129.66Y-81.07
X129.66Y-84.07
X129.7Y-88.8
X130.31Y-73.27
X130.4Y-79.8
X130.56Y-58.37
X130.56Y-59.37
X130.56Y-60.37
X130.76Y-82.97
X130.96Y-55.17
X130.96Y-56.17
X131.1Y-96.6
X131.26Y-77.57
X131.56Y-99.57
X131.81Y-73.27
X131.86Y-89.97
X132.06Y-100.37
X132.16Y-82.97
X132.36Y-53.17
X132.36Y-54.17
X132.36Y-55.17
X132.36Y-56.17
X132.6Y-86.1
X132.6Y-87.6
X132.76Y-77.57
X132.96Y-95.57
X133.06Y-98.12
X133.06Y-103.87
X133.16Y-73.37
X133.31Y-99.37
X133.46Y-86.57
X133.56Y-84.8
X133.7Y-90.8
X133.86Y-82.97
X134.06Y-73.17
X134.26Y-77.57
X134.3Y-87.71
X134.56Y-98.12
X135.0Y-89.9
X135.0Y-93.1
X135.06Y-83.27
X135.1Y-95.1
X135.56Y-101.37
X135.7Y-62.3
X136.36Y-83.27
X136.5Y-61.5
X137.5Y-61.5
X137.56Y-89.97
X137.6Y-94.8
X137.66Y-83.27
X137.8Y-75.1
X137.86Y-77.67
X138.2Y-62.3
X138.4Y-91.9
X138.4Y-93.1
X138.6Y-90.0
X138.76Y-75.27
X138.86Y-83.27
X139.16Y-77.17
X139.635Y-85.845
X139.66Y-82.865
X139.8Y-79.95
X139.8Y-80.85
X140.16Y-95.07
X140.25Y-85.25
X140.4Y-77.2
X140.5Y-88.5
X140.9Y-87.0
X140.96Y-75.47
X141.06Y-89.37
X141.2Y-92.1
X141.2Y-92.9
X141.2Y-95.3
X141.503Y-88.486
X141.6Y-62.7
X141.86Y-79.87
X142.0Y-90.4
X142.26Y-95.87
X142.46Y-60.87
X142.5Y-58.7
X142.5Y-59.9
X142.5Y-77.1
X142.536Y-75.831
X142.8Y-57.1
X142.9Y-62.7
X142.9Y-90.2
X143.102Y-76.396
X143.824Y-77.584
X144.433Y-89.28
X144.5Y-76.5
X145.4Y-62.7
X145.5Y-76.5
X146.033Y-78.78
X146.1Y-58.67
X146.1Y-59.9
X146.3Y-90.3
X146.385Y-57.095
X146.4Y-74.7
X146.46Y-95.87
X146.56Y-93.07
X146.56Y-94.27
X146.9Y-62.4
X146.96Y-89.07
X147.056Y-91.919
X147.1Y-90.57
X147.66Y-94.27
X147.86Y-76.37
X147.96Y-90.6
X148.06Y-93.37
X148.5Y-59.9
X148.66Y-76.47
X148.96Y-80.17
X149.16Y-56.8
X149.2Y-75.6
X149.3Y-62.4
X149.333Y-77.68
X149.6Y-89.9
X149.7Y-58.7
X149.7Y-59.9
X150.0Y-75.4
X150.0Y-76.5
X150.0Y-93.0
X150.1Y-62.7
X150.2Y-57.0
X150.5Y-61.7
X150.674Y-85.259
X150.8Y-55.5
X150.86Y-77.87
X150.86Y-78.77
X151.16Y-94.87
X151.2Y-62.7
X151.26Y-75.37
X151.7Y-61.8
X151.86Y-80.57
X151.86Y-84.77
X151.86Y-90.1
X151.9Y-79.6
X152.06Y-87.87
X152.7Y-61.8
X152.8Y-91.9
X152.8Y-92.8
X152.9Y-80.6
X152.9Y-89.9
X153.06Y-86.87
X153.06Y-88.2
X153.16Y-75.57
X153.3Y-58.7
X153.3Y-59.9
X153.8Y-62.7
X154.06Y-85.87
X154.1Y-61.6
X154.105Y-57.011
X154.66Y-85.07
X154.9Y-88.1
X154.9Y-89.1
X155.4Y-80.6
X155.56Y-85.37
X155.56Y-90.1
X155.7Y-87.3
X155.76Y-83.57
X156.3Y-91.8
X156.3Y-93.0
X156.3Y-94.0
X156.4Y-62.7
X156.5Y-89.1
X156.66Y-90.67
X156.7Y-59.9
X157.4Y-61.6
X157.86Y-56.67
X158.4Y-62.7
X158.46Y-92.67
X159.1Y-80.4
X159.16Y-90.67
X159.2Y-85.5
X159.56Y-79.12
X160.0Y-58.8
X160.16Y-87.37
X160.7Y-57.9
X160.76Y-86.77
X160.76Y-87.97
X160.8Y-61.6
X160.9Y-56.6
X160.9Y-79.1
X161.5Y-95.8
X162.2Y-62.6
X162.36Y-92.2
X163.06Y-94.07
X163.06Y-95.07
X163.5Y-58.8
X163.5Y-62.6
X163.72Y-93.11
X163.86Y-95.8
X164.0Y-79.2
X164.3Y-60.9
X164.4Y-90.6
X164.66Y-94.07
X164.8Y-62.6
X164.81Y-76.62
X165.66Y-75.57
X166.3Y-61.5
X166.4Y-76.4
X166.4Y-89.4
X167.0Y-58.8
X167.1Y-90.2
X167.3Y-79.2
X167.3Y-80.4
X167.4Y-61.4
X167.4Y-76.4
X167.8Y-57.6
X168.0Y-62.4
X168.1Y-90.2
X168.2Y-75.6
X168.56Y-77.37
X168.8Y-80.4
X168.8Y-81.7
X168.86Y-79.17
X169.06Y-90.87
X169.16Y-93.3
X169.16Y-95.9
X170.06Y-73.37
X170.06Y-94.1
X170.11Y-57.22
X170.11Y-59.72
X170.11Y-63.22
X171.46Y-61.02
X171.96Y-57.57
X172.0Y-79.1
X172.06Y-73.37
X172.06Y-75.37
X172.06Y-77.37
X172.71Y-63.92
X173.56Y-59.07
X173.66Y-57.47
X173.86Y-73.37
X173.86Y-75.37
X174.58Y-63.96
X174.86Y-53.67
X175.46Y-59.97
X175.56Y-73.37
X175.56Y-75.37
X176.06Y-61.07
X176.06Y-94.97
X177.16Y-94.97
X177.56Y-73.37
X177.56Y-75.37
X178.26Y-94.97
X178.56Y-76.87
X179.66Y-72.57
X179.66Y-77.97
X180.76Y-75.27
T2
X144.158Y-82.305
X144.158Y-83.58
X144.158Y-84.855
X145.433Y-82.305
X145.433Y-83.58
X145.433Y-84.855
X146.708Y-82.305
X146.708Y-83.58
X146.708Y-84.855
T3
X110.06Y-78.47
X128.86Y-97.57
X129.76Y-62.87
X129.76Y-64.87
X132.5Y-94.3
X133.06Y-62.87
X133.06Y-64.87
X133.8Y-96.6
X134.0Y-58.5
X135.06Y-56.47
X135.06Y-64.87
X136.06Y-55.37
X139.9Y-57.0
X139.9Y-61.0
X141.2Y-58.3
X141.2Y-59.8
X156.35Y-75.35
X158.45Y-75.35
X162.76Y-102.97
T4
X123.197Y-51.337
X125.737Y-51.337
X128.278Y-51.337
X130.817Y-51.337
T5
X89.73Y-79.875
X89.73Y-89.985
X91.25Y-82.415
X91.25Y-92.525
T6
X100.97Y-81.755
X100.97Y-84.295
X100.97Y-86.835
X100.97Y-89.375
X103.51Y-83.025
X103.51Y-85.565
X103.51Y-88.105
X103.51Y-90.645
X120.595Y-55.57
X120.595Y-75.87
X120.595Y-96.17
X123.135Y-55.57
X123.135Y-75.87
X123.135Y-96.17
X178.995Y-58.67
X178.995Y-63.27
X178.995Y-67.87
X178.995Y-83.87
X178.995Y-88.47
X178.995Y-93.07
X181.535Y-58.67
X181.535Y-63.27
X181.535Y-67.87
X181.535Y-83.87
X181.535Y-88.47
X181.535Y-93.07
T7
X96.813Y-62.62
X96.813Y-65.12
X98.813Y-62.62
X98.813Y-65.12
T8
X112.447Y-53.82
X112.447Y-56.36
X112.447Y-58.9
X112.447Y-61.44
X112.447Y-63.98
X114.987Y-53.82
X114.987Y-56.36
X114.987Y-58.9
X114.987Y-61.44
X114.987Y-63.98
X139.5Y-51.86
X139.5Y-54.4
X139.5Y-97.39
X139.5Y-99.93
X142.04Y-51.86
X142.04Y-54.4
X142.04Y-97.39
X142.04Y-99.93
X144.58Y-51.86
X144.58Y-54.4
X144.58Y-97.39
X144.58Y-99.93
X147.12Y-51.86
X147.12Y-54.4
X147.12Y-97.39
X147.12Y-99.93
X149.66Y-51.86
X149.66Y-54.4
X149.66Y-97.39
X149.66Y-99.93
X152.2Y-51.86
X152.2Y-54.4
X152.2Y-97.39
X152.2Y-99.93
X154.74Y-51.86
X154.74Y-54.4
X154.74Y-97.39
X154.74Y-99.93
X157.28Y-51.86
X157.28Y-54.4
X157.28Y-97.39
X157.28Y-99.93
X159.82Y-51.86
X159.82Y-54.4
X159.82Y-97.39
X159.82Y-99.93
X162.36Y-51.86
X162.36Y-54.4
X162.36Y-97.39
X162.36Y-99.93
T9
X97.68Y-78.425
X97.68Y-93.975
T10
X94.103Y-57.85
X94.103Y-69.89
T0
M30
