%TF.GenerationSoftware,KiCad,Pcbnew,(6.0.7)*%
%TF.CreationDate,2022-08-15T19:03:41+05:00*%
%TF.ProjectId,RubyLink_revB,52756279-4c69-46e6-9b5f-726576422e6b,rev?*%
%TF.SameCoordinates,Original*%
%TF.FileFunction,Soldermask,Bot*%
%TF.FilePolarity,Negative*%
%FSLAX46Y46*%
G04 Gerber Fmt 4.6, Leading zero omitted, Abs format (unit mm)*
G04 Created by KiCad (PCBNEW (6.0.7)) date 2022-08-15 19:03:41*
%MOMM*%
%LPD*%
G01*
G04 APERTURE LIST*
G04 Aperture macros list*
%AMRoundRect*
0 Rectangle with rounded corners*
0 $1 Rounding radius*
0 $2 $3 $4 $5 $6 $7 $8 $9 X,Y pos of 4 corners*
0 Add a 4 corners polygon primitive as box body*
4,1,4,$2,$3,$4,$5,$6,$7,$8,$9,$2,$3,0*
0 Add four circle primitives for the rounded corners*
1,1,$1+$1,$2,$3*
1,1,$1+$1,$4,$5*
1,1,$1+$1,$6,$7*
1,1,$1+$1,$8,$9*
0 Add four rect primitives between the rounded corners*
20,1,$1+$1,$2,$3,$4,$5,0*
20,1,$1+$1,$4,$5,$6,$7,0*
20,1,$1+$1,$6,$7,$8,$9,0*
20,1,$1+$1,$8,$9,$2,$3,0*%
G04 Aperture macros list end*
%ADD10C,2.800000*%
%ADD11RoundRect,0.050000X0.900000X0.900000X-0.900000X0.900000X-0.900000X-0.900000X0.900000X-0.900000X0*%
%ADD12C,1.900000*%
%ADD13RoundRect,0.300000X0.600000X-0.600000X0.600000X0.600000X-0.600000X0.600000X-0.600000X-0.600000X0*%
%ADD14C,1.800000*%
%ADD15RoundRect,0.050000X-0.750000X-1.000000X0.750000X-1.000000X0.750000X1.000000X-0.750000X1.000000X0*%
%ADD16O,1.600000X2.100000*%
%ADD17RoundRect,0.050000X-0.714000X0.714000X-0.714000X-0.714000X0.714000X-0.714000X0.714000X0.714000X0*%
%ADD18C,1.528000*%
%ADD19C,3.416000*%
%ADD20C,2.474900*%
%ADD21C,1.090600*%
%ADD22RoundRect,0.300000X-0.600000X0.600000X-0.600000X-0.600000X0.600000X-0.600000X0.600000X0.600000X0*%
%ADD23C,3.350000*%
%ADD24C,2.700000*%
%ADD25C,1.990000*%
%ADD26RoundRect,0.050000X-0.950000X0.950000X-0.950000X-0.950000X0.950000X-0.950000X0.950000X0.950000X0*%
%ADD27C,2.000000*%
%ADD28RoundRect,0.300000X-0.600000X-0.600000X0.600000X-0.600000X0.600000X0.600000X-0.600000X0.600000X0*%
%ADD29C,1.100000*%
G04 APERTURE END LIST*
D10*
X100000000Y-51740000D03*
X171120000Y-100000000D03*
D11*
X181535000Y-83870000D03*
D12*
X178995000Y-83870000D03*
D13*
X139500000Y-54400000D03*
D14*
X139500000Y-51860000D03*
X142040000Y-54400000D03*
X142040000Y-51860000D03*
X144580000Y-54400000D03*
X144580000Y-51860000D03*
X147120000Y-54400000D03*
X147120000Y-51860000D03*
X149660000Y-54400000D03*
X149660000Y-51860000D03*
X152200000Y-54400000D03*
X152200000Y-51860000D03*
X154740000Y-54400000D03*
X154740000Y-51860000D03*
X157280000Y-54400000D03*
X157280000Y-51860000D03*
X159820000Y-54400000D03*
X159820000Y-51860000D03*
X162360000Y-54400000D03*
X162360000Y-51860000D03*
D11*
X123135000Y-55570000D03*
D12*
X120595000Y-55570000D03*
D11*
X181535000Y-93070000D03*
D12*
X178995000Y-93070000D03*
D11*
X123135000Y-75870000D03*
D12*
X120595000Y-75870000D03*
D15*
X123197500Y-51337500D03*
D16*
X125737500Y-51337500D03*
X128277500Y-51337500D03*
X130817500Y-51337500D03*
D11*
X181535000Y-58670000D03*
D12*
X178995000Y-58670000D03*
D17*
X98813000Y-65120000D03*
D18*
X98813000Y-62620000D03*
X96813000Y-62620000D03*
X96813000Y-65120000D03*
D19*
X94103000Y-69890000D03*
X94103000Y-57850000D03*
D10*
X100000000Y-100000000D03*
X171120000Y-51740000D03*
D20*
X120720000Y-64585000D03*
D21*
X124276000Y-62680000D03*
D20*
X125800000Y-64585000D03*
D21*
X123260000Y-67760000D03*
D20*
X125800000Y-67760000D03*
X120720000Y-67760000D03*
D21*
X122244000Y-62680000D03*
D11*
X123135000Y-96170000D03*
D12*
X120595000Y-96170000D03*
D11*
X181535000Y-63270000D03*
D12*
X178995000Y-63270000D03*
D22*
X162360000Y-97390000D03*
D14*
X162360000Y-99930000D03*
X159820000Y-97390000D03*
X159820000Y-99930000D03*
X157280000Y-97390000D03*
X157280000Y-99930000D03*
X154740000Y-97390000D03*
X154740000Y-99930000D03*
X152200000Y-97390000D03*
X152200000Y-99930000D03*
X149660000Y-97390000D03*
X149660000Y-99930000D03*
X147120000Y-97390000D03*
X147120000Y-99930000D03*
X144580000Y-97390000D03*
X144580000Y-99930000D03*
X142040000Y-97390000D03*
X142040000Y-99930000D03*
X139500000Y-97390000D03*
X139500000Y-99930000D03*
D23*
X94630000Y-91915000D03*
X94630000Y-80485000D03*
D24*
X97680000Y-93975000D03*
X97680000Y-78425000D03*
D25*
X91250000Y-92525000D03*
X89730000Y-89985000D03*
X91250000Y-82415000D03*
X89730000Y-79875000D03*
D26*
X100970000Y-81755000D03*
D27*
X103510000Y-83025000D03*
X100970000Y-84295000D03*
X103510000Y-85565000D03*
X100970000Y-86835000D03*
X103510000Y-88105000D03*
X100970000Y-89375000D03*
X103510000Y-90645000D03*
D28*
X112447500Y-53820000D03*
D14*
X114987500Y-53820000D03*
X112447500Y-56360000D03*
X114987500Y-56360000D03*
X112447500Y-58900000D03*
X114987500Y-58900000D03*
X112447500Y-61440000D03*
X114987500Y-61440000D03*
X112447500Y-63980000D03*
X114987500Y-63980000D03*
D11*
X181535000Y-67870000D03*
D12*
X178995000Y-67870000D03*
D11*
X181535000Y-88470000D03*
D12*
X178995000Y-88470000D03*
D29*
X129660000Y-99470000D03*
X120560000Y-92570000D03*
X180760000Y-76870000D03*
X118260000Y-98670000D03*
X139660000Y-59370000D03*
X129660000Y-96070000D03*
X144060000Y-59370000D03*
X173660000Y-62370000D03*
X131860000Y-97470000D03*
X123560000Y-78770000D03*
X166060000Y-91470000D03*
X106560000Y-58870000D03*
X120760000Y-80070000D03*
X173660000Y-64870000D03*
X108460000Y-47770000D03*
X163660000Y-91970000D03*
X176660000Y-93070000D03*
X149560000Y-78970000D03*
X127060000Y-96070000D03*
X176860000Y-76870000D03*
X132160000Y-102270000D03*
X120660000Y-98670000D03*
X120560000Y-53670000D03*
X176660000Y-88370000D03*
X161460000Y-94370000D03*
X176660000Y-83870000D03*
X139660000Y-62970000D03*
X102860000Y-59770000D03*
X176860000Y-80170000D03*
X162860000Y-61470000D03*
M02*
