%TF.GenerationSoftware,KiCad,Pcbnew,(6.0.7)*%
%TF.CreationDate,2022-08-15T19:03:41+05:00*%
%TF.ProjectId,RubyLink_revB,52756279-4c69-46e6-9b5f-726576422e6b,rev?*%
%TF.SameCoordinates,Original*%
%TF.FileFunction,Legend,Bot*%
%TF.FilePolarity,Positive*%
%FSLAX46Y46*%
G04 Gerber Fmt 4.6, Leading zero omitted, Abs format (unit mm)*
G04 Created by KiCad (PCBNEW (6.0.7)) date 2022-08-15 19:03:41*
%MOMM*%
%LPD*%
G01*
G04 APERTURE LIST*
G04 Aperture macros list*
%AMRoundRect*
0 Rectangle with rounded corners*
0 $1 Rounding radius*
0 $2 $3 $4 $5 $6 $7 $8 $9 X,Y pos of 4 corners*
0 Add a 4 corners polygon primitive as box body*
4,1,4,$2,$3,$4,$5,$6,$7,$8,$9,$2,$3,0*
0 Add four circle primitives for the rounded corners*
1,1,$1+$1,$2,$3*
1,1,$1+$1,$4,$5*
1,1,$1+$1,$6,$7*
1,1,$1+$1,$8,$9*
0 Add four rect primitives between the rounded corners*
20,1,$1+$1,$2,$3,$4,$5,0*
20,1,$1+$1,$4,$5,$6,$7,0*
20,1,$1+$1,$6,$7,$8,$9,0*
20,1,$1+$1,$8,$9,$2,$3,0*%
G04 Aperture macros list end*
%ADD10C,0.150000*%
%ADD11C,0.153000*%
%ADD12C,0.120000*%
%ADD13C,2.800000*%
%ADD14RoundRect,0.050000X0.900000X0.900000X-0.900000X0.900000X-0.900000X-0.900000X0.900000X-0.900000X0*%
%ADD15C,1.900000*%
%ADD16RoundRect,0.300000X0.600000X-0.600000X0.600000X0.600000X-0.600000X0.600000X-0.600000X-0.600000X0*%
%ADD17C,1.800000*%
%ADD18RoundRect,0.050000X-0.750000X-1.000000X0.750000X-1.000000X0.750000X1.000000X-0.750000X1.000000X0*%
%ADD19O,1.600000X2.100000*%
%ADD20RoundRect,0.050000X-0.714000X0.714000X-0.714000X-0.714000X0.714000X-0.714000X0.714000X0.714000X0*%
%ADD21C,1.528000*%
%ADD22C,3.416000*%
%ADD23C,2.474900*%
%ADD24C,1.090600*%
%ADD25RoundRect,0.300000X-0.600000X0.600000X-0.600000X-0.600000X0.600000X-0.600000X0.600000X0.600000X0*%
%ADD26C,3.350000*%
%ADD27C,2.700000*%
%ADD28C,1.990000*%
%ADD29RoundRect,0.050000X-0.950000X0.950000X-0.950000X-0.950000X0.950000X-0.950000X0.950000X0.950000X0*%
%ADD30C,2.000000*%
%ADD31RoundRect,0.300000X-0.600000X-0.600000X0.600000X-0.600000X0.600000X0.600000X-0.600000X0.600000X0*%
%ADD32C,1.100000*%
G04 APERTURE END LIST*
D10*
X165060000Y-65870000D02*
X158560000Y-72370000D01*
X127560000Y-67370000D02*
X129060000Y-65870000D01*
X125560000Y-71370000D02*
X131060000Y-65870000D01*
X158060000Y-65870000D02*
X151560000Y-72370000D01*
X147060000Y-65870000D02*
X140560000Y-72370000D01*
X174560000Y-72370000D02*
X177560000Y-69370000D01*
X177560000Y-65870000D02*
X177560000Y-72370000D01*
X125560000Y-72370000D02*
X125560000Y-69370000D01*
X137060000Y-65870000D02*
X130560000Y-72370000D01*
X126960000Y-56970000D02*
X125560000Y-58370000D01*
X155060000Y-65870000D02*
X148560000Y-72370000D01*
X144060000Y-65870000D02*
X137560000Y-72370000D01*
X164060000Y-65870000D02*
X157560000Y-72370000D01*
X143060000Y-65870000D02*
X136560000Y-72370000D01*
X164560000Y-72370000D02*
X171060000Y-65870000D01*
X126560000Y-72370000D02*
X133060000Y-65870000D01*
X140060000Y-65870000D02*
X133560000Y-72370000D01*
X127560000Y-64370000D02*
X128560000Y-63370000D01*
X166560000Y-72370000D02*
X173060000Y-65870000D01*
X146060000Y-65870000D02*
X139560000Y-72370000D01*
X128560000Y-64370000D02*
X127560000Y-65370000D01*
X171560000Y-72370000D02*
X177560000Y-66370000D01*
X127560000Y-63070000D02*
X127560000Y-69370000D01*
X127560000Y-63070000D02*
X125560000Y-63070000D01*
X125560000Y-63070000D02*
X125560000Y-56970000D01*
X151060000Y-65870000D02*
X144560000Y-72370000D01*
X160560000Y-72370000D02*
X167060000Y-65870000D01*
X161560000Y-72370000D02*
X168060000Y-65870000D01*
X175560000Y-72370000D02*
X177560000Y-70370000D01*
X173560000Y-72370000D02*
X177560000Y-68370000D01*
X132060000Y-65870000D02*
X125560000Y-72370000D01*
X127560000Y-66370000D02*
X128560000Y-65370000D01*
X153060000Y-65870000D02*
X146560000Y-72370000D01*
X135060000Y-65870000D02*
X128560000Y-72370000D01*
X160060000Y-65870000D02*
X153560000Y-72370000D01*
X152060000Y-65870000D02*
X145560000Y-72370000D01*
X128560000Y-57370000D02*
X125560000Y-60370000D01*
X134060000Y-65870000D02*
X127560000Y-72370000D01*
X177560000Y-72370000D02*
X125560000Y-72370000D01*
X177560000Y-65870000D02*
X128560000Y-65870000D01*
X127460000Y-56970000D02*
X127460000Y-53220000D01*
X128560000Y-62370000D02*
X127560000Y-63370000D01*
X159060000Y-65870000D02*
X152560000Y-72370000D01*
X162560000Y-72370000D02*
X169060000Y-65870000D01*
X128560000Y-55370000D02*
X127460000Y-56470000D01*
X163060000Y-65870000D02*
X156560000Y-72370000D01*
X156060000Y-65870000D02*
X149560000Y-72370000D01*
X169560000Y-72370000D02*
X176060000Y-65870000D01*
X161060000Y-65870000D02*
X154560000Y-72370000D01*
X149060000Y-65870000D02*
X142560000Y-72370000D01*
X162060000Y-65870000D02*
X155560000Y-72370000D01*
X127460000Y-56970000D02*
X125560000Y-56970000D01*
X145060000Y-65870000D02*
X138560000Y-72370000D01*
X142060000Y-65870000D02*
X135560000Y-72370000D01*
X130060000Y-65870000D02*
X127560000Y-68370000D01*
X127560000Y-69370000D02*
X125560000Y-69370000D01*
X163560000Y-72370000D02*
X170060000Y-65870000D01*
X170560000Y-72370000D02*
X177060000Y-65870000D01*
X138060000Y-65870000D02*
X131560000Y-72370000D01*
X128560000Y-58370000D02*
X125560000Y-61370000D01*
X128560000Y-53220000D02*
X127460000Y-54320000D01*
X141060000Y-65870000D02*
X134560000Y-72370000D01*
X176560000Y-72370000D02*
X177560000Y-71370000D01*
X129560000Y-72370000D02*
X136060000Y-65870000D01*
X126860000Y-63070000D02*
X128560000Y-61370000D01*
X154060000Y-65870000D02*
X147560000Y-72370000D01*
X148060000Y-65870000D02*
X141560000Y-72370000D01*
X150060000Y-65870000D02*
X143560000Y-72370000D01*
X172560000Y-72370000D02*
X177560000Y-67370000D01*
X125960000Y-56970000D02*
X125560000Y-57370000D01*
X128560000Y-59370000D02*
X125560000Y-62370000D01*
X139060000Y-65870000D02*
X132560000Y-72370000D01*
X128560000Y-54320000D02*
X127460000Y-55420000D01*
X128560000Y-56370000D02*
X125560000Y-59370000D01*
X165560000Y-72370000D02*
X172060000Y-65870000D01*
X166060000Y-65870000D02*
X159560000Y-72370000D01*
X168510000Y-72370000D02*
X175010000Y-65870000D01*
X157060000Y-65870000D02*
X150560000Y-72370000D01*
X128560000Y-60370000D02*
X125860000Y-63070000D01*
X128560000Y-53220000D02*
X127460000Y-53220000D01*
X167560000Y-72370000D02*
X174060000Y-65870000D01*
X128560000Y-53220000D02*
X128560000Y-65870000D01*
D11*
X130669523Y-100631904D02*
X130212380Y-100631904D01*
X130440952Y-101431904D02*
X130440952Y-100631904D01*
X129945714Y-101431904D02*
X129945714Y-100631904D01*
X129640952Y-100631904D01*
X129564761Y-100670000D01*
X129526666Y-100708095D01*
X129488571Y-100784285D01*
X129488571Y-100898571D01*
X129526666Y-100974761D01*
X129564761Y-101012857D01*
X129640952Y-101050952D01*
X129945714Y-101050952D01*
X129221904Y-100631904D02*
X128688571Y-100631904D01*
X129031428Y-101431904D01*
X121569523Y-90683904D02*
X121112380Y-90683904D01*
X121340952Y-91483904D02*
X121340952Y-90683904D01*
X120845714Y-91483904D02*
X120845714Y-90683904D01*
X120540952Y-90683904D01*
X120464761Y-90722000D01*
X120426666Y-90760095D01*
X120388571Y-90836285D01*
X120388571Y-90950571D01*
X120426666Y-91026761D01*
X120464761Y-91064857D01*
X120540952Y-91102952D01*
X120845714Y-91102952D01*
X120083809Y-90760095D02*
X120045714Y-90722000D01*
X119969523Y-90683904D01*
X119779047Y-90683904D01*
X119702857Y-90722000D01*
X119664761Y-90760095D01*
X119626666Y-90836285D01*
X119626666Y-90912476D01*
X119664761Y-91026761D01*
X120121904Y-91483904D01*
X119626666Y-91483904D01*
X182050476Y-78431904D02*
X181593333Y-78431904D01*
X181821904Y-79231904D02*
X181821904Y-78431904D01*
X181326666Y-79231904D02*
X181326666Y-78431904D01*
X181021904Y-78431904D01*
X180945714Y-78470000D01*
X180907619Y-78508095D01*
X180869523Y-78584285D01*
X180869523Y-78698571D01*
X180907619Y-78774761D01*
X180945714Y-78812857D01*
X181021904Y-78850952D01*
X181326666Y-78850952D01*
X180564761Y-78508095D02*
X180526666Y-78470000D01*
X180450476Y-78431904D01*
X180260000Y-78431904D01*
X180183809Y-78470000D01*
X180145714Y-78508095D01*
X180107619Y-78584285D01*
X180107619Y-78660476D01*
X180145714Y-78774761D01*
X180602857Y-79231904D01*
X180107619Y-79231904D01*
X179612380Y-78431904D02*
X179536190Y-78431904D01*
X179460000Y-78470000D01*
X179421904Y-78508095D01*
X179383809Y-78584285D01*
X179345714Y-78736666D01*
X179345714Y-78927142D01*
X179383809Y-79079523D01*
X179421904Y-79155714D01*
X179460000Y-79193809D01*
X179536190Y-79231904D01*
X179612380Y-79231904D01*
X179688571Y-79193809D01*
X179726666Y-79155714D01*
X179764761Y-79079523D01*
X179802857Y-78927142D01*
X179802857Y-78736666D01*
X179764761Y-78584285D01*
X179726666Y-78508095D01*
X179688571Y-78470000D01*
X179612380Y-78431904D01*
X117169523Y-98431904D02*
X116712380Y-98431904D01*
X116940952Y-99231904D02*
X116940952Y-98431904D01*
X116445714Y-99231904D02*
X116445714Y-98431904D01*
X116140952Y-98431904D01*
X116064761Y-98470000D01*
X116026666Y-98508095D01*
X115988571Y-98584285D01*
X115988571Y-98698571D01*
X116026666Y-98774761D01*
X116064761Y-98812857D01*
X116140952Y-98850952D01*
X116445714Y-98850952D01*
X115226666Y-99231904D02*
X115683809Y-99231904D01*
X115455238Y-99231904D02*
X115455238Y-98431904D01*
X115531428Y-98546190D01*
X115607619Y-98622380D01*
X115683809Y-98660476D01*
X138650476Y-58931904D02*
X138193333Y-58931904D01*
X138421904Y-59731904D02*
X138421904Y-58931904D01*
X137926666Y-59731904D02*
X137926666Y-58931904D01*
X137621904Y-58931904D01*
X137545714Y-58970000D01*
X137507619Y-59008095D01*
X137469523Y-59084285D01*
X137469523Y-59198571D01*
X137507619Y-59274761D01*
X137545714Y-59312857D01*
X137621904Y-59350952D01*
X137926666Y-59350952D01*
X137164761Y-59008095D02*
X137126666Y-58970000D01*
X137050476Y-58931904D01*
X136860000Y-58931904D01*
X136783809Y-58970000D01*
X136745714Y-59008095D01*
X136707619Y-59084285D01*
X136707619Y-59160476D01*
X136745714Y-59274761D01*
X137202857Y-59731904D01*
X136707619Y-59731904D01*
X136326666Y-59731904D02*
X136174285Y-59731904D01*
X136098095Y-59693809D01*
X136060000Y-59655714D01*
X135983809Y-59541428D01*
X135945714Y-59389047D01*
X135945714Y-59084285D01*
X135983809Y-59008095D01*
X136021904Y-58970000D01*
X136098095Y-58931904D01*
X136250476Y-58931904D01*
X136326666Y-58970000D01*
X136364761Y-59008095D01*
X136402857Y-59084285D01*
X136402857Y-59274761D01*
X136364761Y-59350952D01*
X136326666Y-59389047D01*
X136250476Y-59427142D01*
X136098095Y-59427142D01*
X136021904Y-59389047D01*
X135983809Y-59350952D01*
X135945714Y-59274761D01*
X131050476Y-94131904D02*
X130593333Y-94131904D01*
X130821904Y-94931904D02*
X130821904Y-94131904D01*
X130326666Y-94931904D02*
X130326666Y-94131904D01*
X130021904Y-94131904D01*
X129945714Y-94170000D01*
X129907619Y-94208095D01*
X129869523Y-94284285D01*
X129869523Y-94398571D01*
X129907619Y-94474761D01*
X129945714Y-94512857D01*
X130021904Y-94550952D01*
X130326666Y-94550952D01*
X129107619Y-94931904D02*
X129564761Y-94931904D01*
X129336190Y-94931904D02*
X129336190Y-94131904D01*
X129412380Y-94246190D01*
X129488571Y-94322380D01*
X129564761Y-94360476D01*
X128650476Y-94474761D02*
X128726666Y-94436666D01*
X128764761Y-94398571D01*
X128802857Y-94322380D01*
X128802857Y-94284285D01*
X128764761Y-94208095D01*
X128726666Y-94170000D01*
X128650476Y-94131904D01*
X128498095Y-94131904D01*
X128421904Y-94170000D01*
X128383809Y-94208095D01*
X128345714Y-94284285D01*
X128345714Y-94322380D01*
X128383809Y-94398571D01*
X128421904Y-94436666D01*
X128498095Y-94474761D01*
X128650476Y-94474761D01*
X128726666Y-94512857D01*
X128764761Y-94550952D01*
X128802857Y-94627142D01*
X128802857Y-94779523D01*
X128764761Y-94855714D01*
X128726666Y-94893809D01*
X128650476Y-94931904D01*
X128498095Y-94931904D01*
X128421904Y-94893809D01*
X128383809Y-94855714D01*
X128345714Y-94779523D01*
X128345714Y-94627142D01*
X128383809Y-94550952D01*
X128421904Y-94512857D01*
X128498095Y-94474761D01*
X145450476Y-57431904D02*
X144993333Y-57431904D01*
X145221904Y-58231904D02*
X145221904Y-57431904D01*
X144726666Y-58231904D02*
X144726666Y-57431904D01*
X144421904Y-57431904D01*
X144345714Y-57470000D01*
X144307619Y-57508095D01*
X144269523Y-57584285D01*
X144269523Y-57698571D01*
X144307619Y-57774761D01*
X144345714Y-57812857D01*
X144421904Y-57850952D01*
X144726666Y-57850952D01*
X144002857Y-57431904D02*
X143507619Y-57431904D01*
X143774285Y-57736666D01*
X143660000Y-57736666D01*
X143583809Y-57774761D01*
X143545714Y-57812857D01*
X143507619Y-57889047D01*
X143507619Y-58079523D01*
X143545714Y-58155714D01*
X143583809Y-58193809D01*
X143660000Y-58231904D01*
X143888571Y-58231904D01*
X143964761Y-58193809D01*
X144002857Y-58155714D01*
X143012380Y-57431904D02*
X142936190Y-57431904D01*
X142860000Y-57470000D01*
X142821904Y-57508095D01*
X142783809Y-57584285D01*
X142745714Y-57736666D01*
X142745714Y-57927142D01*
X142783809Y-58079523D01*
X142821904Y-58155714D01*
X142860000Y-58193809D01*
X142936190Y-58231904D01*
X143012380Y-58231904D01*
X143088571Y-58193809D01*
X143126666Y-58155714D01*
X143164761Y-58079523D01*
X143202857Y-57927142D01*
X143202857Y-57736666D01*
X143164761Y-57584285D01*
X143126666Y-57508095D01*
X143088571Y-57470000D01*
X143012380Y-57431904D01*
X177350476Y-61531904D02*
X176893333Y-61531904D01*
X177121904Y-62331904D02*
X177121904Y-61531904D01*
X176626666Y-62331904D02*
X176626666Y-61531904D01*
X176321904Y-61531904D01*
X176245714Y-61570000D01*
X176207619Y-61608095D01*
X176169523Y-61684285D01*
X176169523Y-61798571D01*
X176207619Y-61874761D01*
X176245714Y-61912857D01*
X176321904Y-61950952D01*
X176626666Y-61950952D01*
X175864761Y-61608095D02*
X175826666Y-61570000D01*
X175750476Y-61531904D01*
X175560000Y-61531904D01*
X175483809Y-61570000D01*
X175445714Y-61608095D01*
X175407619Y-61684285D01*
X175407619Y-61760476D01*
X175445714Y-61874761D01*
X175902857Y-62331904D01*
X175407619Y-62331904D01*
X175102857Y-61608095D02*
X175064761Y-61570000D01*
X174988571Y-61531904D01*
X174798095Y-61531904D01*
X174721904Y-61570000D01*
X174683809Y-61608095D01*
X174645714Y-61684285D01*
X174645714Y-61760476D01*
X174683809Y-61874761D01*
X175140952Y-62331904D01*
X174645714Y-62331904D01*
X133569523Y-95531904D02*
X133112380Y-95531904D01*
X133340952Y-96331904D02*
X133340952Y-95531904D01*
X132845714Y-96331904D02*
X132845714Y-95531904D01*
X132540952Y-95531904D01*
X132464761Y-95570000D01*
X132426666Y-95608095D01*
X132388571Y-95684285D01*
X132388571Y-95798571D01*
X132426666Y-95874761D01*
X132464761Y-95912857D01*
X132540952Y-95950952D01*
X132845714Y-95950952D01*
X131931428Y-95874761D02*
X132007619Y-95836666D01*
X132045714Y-95798571D01*
X132083809Y-95722380D01*
X132083809Y-95684285D01*
X132045714Y-95608095D01*
X132007619Y-95570000D01*
X131931428Y-95531904D01*
X131779047Y-95531904D01*
X131702857Y-95570000D01*
X131664761Y-95608095D01*
X131626666Y-95684285D01*
X131626666Y-95722380D01*
X131664761Y-95798571D01*
X131702857Y-95836666D01*
X131779047Y-95874761D01*
X131931428Y-95874761D01*
X132007619Y-95912857D01*
X132045714Y-95950952D01*
X132083809Y-96027142D01*
X132083809Y-96179523D01*
X132045714Y-96255714D01*
X132007619Y-96293809D01*
X131931428Y-96331904D01*
X131779047Y-96331904D01*
X131702857Y-96293809D01*
X131664761Y-96255714D01*
X131626666Y-96179523D01*
X131626666Y-96027142D01*
X131664761Y-95950952D01*
X131702857Y-95912857D01*
X131779047Y-95874761D01*
X126469523Y-79131904D02*
X126012380Y-79131904D01*
X126240952Y-79931904D02*
X126240952Y-79131904D01*
X125745714Y-79931904D02*
X125745714Y-79131904D01*
X125440952Y-79131904D01*
X125364761Y-79170000D01*
X125326666Y-79208095D01*
X125288571Y-79284285D01*
X125288571Y-79398571D01*
X125326666Y-79474761D01*
X125364761Y-79512857D01*
X125440952Y-79550952D01*
X125745714Y-79550952D01*
X124907619Y-79931904D02*
X124755238Y-79931904D01*
X124679047Y-79893809D01*
X124640952Y-79855714D01*
X124564761Y-79741428D01*
X124526666Y-79589047D01*
X124526666Y-79284285D01*
X124564761Y-79208095D01*
X124602857Y-79170000D01*
X124679047Y-79131904D01*
X124831428Y-79131904D01*
X124907619Y-79170000D01*
X124945714Y-79208095D01*
X124983809Y-79284285D01*
X124983809Y-79474761D01*
X124945714Y-79550952D01*
X124907619Y-79589047D01*
X124831428Y-79627142D01*
X124679047Y-79627142D01*
X124602857Y-79589047D01*
X124564761Y-79550952D01*
X124526666Y-79474761D01*
X169950476Y-91231904D02*
X169493333Y-91231904D01*
X169721904Y-92031904D02*
X169721904Y-91231904D01*
X169226666Y-92031904D02*
X169226666Y-91231904D01*
X168921904Y-91231904D01*
X168845714Y-91270000D01*
X168807619Y-91308095D01*
X168769523Y-91384285D01*
X168769523Y-91498571D01*
X168807619Y-91574761D01*
X168845714Y-91612857D01*
X168921904Y-91650952D01*
X169226666Y-91650952D01*
X168007619Y-92031904D02*
X168464761Y-92031904D01*
X168236190Y-92031904D02*
X168236190Y-91231904D01*
X168312380Y-91346190D01*
X168388571Y-91422380D01*
X168464761Y-91460476D01*
X167321904Y-91231904D02*
X167474285Y-91231904D01*
X167550476Y-91270000D01*
X167588571Y-91308095D01*
X167664761Y-91422380D01*
X167702857Y-91574761D01*
X167702857Y-91879523D01*
X167664761Y-91955714D01*
X167626666Y-91993809D01*
X167550476Y-92031904D01*
X167398095Y-92031904D01*
X167321904Y-91993809D01*
X167283809Y-91955714D01*
X167245714Y-91879523D01*
X167245714Y-91689047D01*
X167283809Y-91612857D01*
X167321904Y-91574761D01*
X167398095Y-91536666D01*
X167550476Y-91536666D01*
X167626666Y-91574761D01*
X167664761Y-91612857D01*
X167702857Y-91689047D01*
X110450476Y-58431904D02*
X109993333Y-58431904D01*
X110221904Y-59231904D02*
X110221904Y-58431904D01*
X109726666Y-59231904D02*
X109726666Y-58431904D01*
X109421904Y-58431904D01*
X109345714Y-58470000D01*
X109307619Y-58508095D01*
X109269523Y-58584285D01*
X109269523Y-58698571D01*
X109307619Y-58774761D01*
X109345714Y-58812857D01*
X109421904Y-58850952D01*
X109726666Y-58850952D01*
X108964761Y-58508095D02*
X108926666Y-58470000D01*
X108850476Y-58431904D01*
X108660000Y-58431904D01*
X108583809Y-58470000D01*
X108545714Y-58508095D01*
X108507619Y-58584285D01*
X108507619Y-58660476D01*
X108545714Y-58774761D01*
X109002857Y-59231904D01*
X108507619Y-59231904D01*
X107783809Y-58431904D02*
X108164761Y-58431904D01*
X108202857Y-58812857D01*
X108164761Y-58774761D01*
X108088571Y-58736666D01*
X107898095Y-58736666D01*
X107821904Y-58774761D01*
X107783809Y-58812857D01*
X107745714Y-58889047D01*
X107745714Y-59079523D01*
X107783809Y-59155714D01*
X107821904Y-59193809D01*
X107898095Y-59231904D01*
X108088571Y-59231904D01*
X108164761Y-59193809D01*
X108202857Y-59155714D01*
X123769523Y-79631904D02*
X123312380Y-79631904D01*
X123540952Y-80431904D02*
X123540952Y-79631904D01*
X123045714Y-80431904D02*
X123045714Y-79631904D01*
X122740952Y-79631904D01*
X122664761Y-79670000D01*
X122626666Y-79708095D01*
X122588571Y-79784285D01*
X122588571Y-79898571D01*
X122626666Y-79974761D01*
X122664761Y-80012857D01*
X122740952Y-80050952D01*
X123045714Y-80050952D01*
X121864761Y-79631904D02*
X122245714Y-79631904D01*
X122283809Y-80012857D01*
X122245714Y-79974761D01*
X122169523Y-79936666D01*
X121979047Y-79936666D01*
X121902857Y-79974761D01*
X121864761Y-80012857D01*
X121826666Y-80089047D01*
X121826666Y-80279523D01*
X121864761Y-80355714D01*
X121902857Y-80393809D01*
X121979047Y-80431904D01*
X122169523Y-80431904D01*
X122245714Y-80393809D01*
X122283809Y-80355714D01*
X177850476Y-64531904D02*
X177393333Y-64531904D01*
X177621904Y-65331904D02*
X177621904Y-64531904D01*
X177126666Y-65331904D02*
X177126666Y-64531904D01*
X176821904Y-64531904D01*
X176745714Y-64570000D01*
X176707619Y-64608095D01*
X176669523Y-64684285D01*
X176669523Y-64798571D01*
X176707619Y-64874761D01*
X176745714Y-64912857D01*
X176821904Y-64950952D01*
X177126666Y-64950952D01*
X176364761Y-64608095D02*
X176326666Y-64570000D01*
X176250476Y-64531904D01*
X176060000Y-64531904D01*
X175983809Y-64570000D01*
X175945714Y-64608095D01*
X175907619Y-64684285D01*
X175907619Y-64760476D01*
X175945714Y-64874761D01*
X176402857Y-65331904D01*
X175907619Y-65331904D01*
X175640952Y-64531904D02*
X175145714Y-64531904D01*
X175412380Y-64836666D01*
X175298095Y-64836666D01*
X175221904Y-64874761D01*
X175183809Y-64912857D01*
X175145714Y-64989047D01*
X175145714Y-65179523D01*
X175183809Y-65255714D01*
X175221904Y-65293809D01*
X175298095Y-65331904D01*
X175526666Y-65331904D01*
X175602857Y-65293809D01*
X175640952Y-65255714D01*
X112450476Y-47231904D02*
X111993333Y-47231904D01*
X112221904Y-48031904D02*
X112221904Y-47231904D01*
X111726666Y-48031904D02*
X111726666Y-47231904D01*
X111421904Y-47231904D01*
X111345714Y-47270000D01*
X111307619Y-47308095D01*
X111269523Y-47384285D01*
X111269523Y-47498571D01*
X111307619Y-47574761D01*
X111345714Y-47612857D01*
X111421904Y-47650952D01*
X111726666Y-47650952D01*
X110964761Y-47308095D02*
X110926666Y-47270000D01*
X110850476Y-47231904D01*
X110660000Y-47231904D01*
X110583809Y-47270000D01*
X110545714Y-47308095D01*
X110507619Y-47384285D01*
X110507619Y-47460476D01*
X110545714Y-47574761D01*
X111002857Y-48031904D01*
X110507619Y-48031904D01*
X110240952Y-47231904D02*
X109707619Y-47231904D01*
X110050476Y-48031904D01*
X162750476Y-91031904D02*
X162293333Y-91031904D01*
X162521904Y-91831904D02*
X162521904Y-91031904D01*
X162026666Y-91831904D02*
X162026666Y-91031904D01*
X161721904Y-91031904D01*
X161645714Y-91070000D01*
X161607619Y-91108095D01*
X161569523Y-91184285D01*
X161569523Y-91298571D01*
X161607619Y-91374761D01*
X161645714Y-91412857D01*
X161721904Y-91450952D01*
X162026666Y-91450952D01*
X160807619Y-91831904D02*
X161264761Y-91831904D01*
X161036190Y-91831904D02*
X161036190Y-91031904D01*
X161112380Y-91146190D01*
X161188571Y-91222380D01*
X161264761Y-91260476D01*
X160540952Y-91031904D02*
X160045714Y-91031904D01*
X160312380Y-91336666D01*
X160198095Y-91336666D01*
X160121904Y-91374761D01*
X160083809Y-91412857D01*
X160045714Y-91489047D01*
X160045714Y-91679523D01*
X160083809Y-91755714D01*
X160121904Y-91793809D01*
X160198095Y-91831904D01*
X160426666Y-91831904D01*
X160502857Y-91793809D01*
X160540952Y-91755714D01*
X175650476Y-92631904D02*
X175193333Y-92631904D01*
X175421904Y-93431904D02*
X175421904Y-92631904D01*
X174926666Y-93431904D02*
X174926666Y-92631904D01*
X174621904Y-92631904D01*
X174545714Y-92670000D01*
X174507619Y-92708095D01*
X174469523Y-92784285D01*
X174469523Y-92898571D01*
X174507619Y-92974761D01*
X174545714Y-93012857D01*
X174621904Y-93050952D01*
X174926666Y-93050952D01*
X173707619Y-93431904D02*
X174164761Y-93431904D01*
X173936190Y-93431904D02*
X173936190Y-92631904D01*
X174012380Y-92746190D01*
X174088571Y-92822380D01*
X174164761Y-92860476D01*
X172983809Y-92631904D02*
X173364761Y-92631904D01*
X173402857Y-93012857D01*
X173364761Y-92974761D01*
X173288571Y-92936666D01*
X173098095Y-92936666D01*
X173021904Y-92974761D01*
X172983809Y-93012857D01*
X172945714Y-93089047D01*
X172945714Y-93279523D01*
X172983809Y-93355714D01*
X173021904Y-93393809D01*
X173098095Y-93431904D01*
X173288571Y-93431904D01*
X173364761Y-93393809D01*
X173402857Y-93355714D01*
X150569523Y-77083904D02*
X150112380Y-77083904D01*
X150340952Y-77883904D02*
X150340952Y-77083904D01*
X149845714Y-77883904D02*
X149845714Y-77083904D01*
X149540952Y-77083904D01*
X149464761Y-77122000D01*
X149426666Y-77160095D01*
X149388571Y-77236285D01*
X149388571Y-77350571D01*
X149426666Y-77426761D01*
X149464761Y-77464857D01*
X149540952Y-77502952D01*
X149845714Y-77502952D01*
X148702857Y-77083904D02*
X148855238Y-77083904D01*
X148931428Y-77122000D01*
X148969523Y-77160095D01*
X149045714Y-77274380D01*
X149083809Y-77426761D01*
X149083809Y-77731523D01*
X149045714Y-77807714D01*
X149007619Y-77845809D01*
X148931428Y-77883904D01*
X148779047Y-77883904D01*
X148702857Y-77845809D01*
X148664761Y-77807714D01*
X148626666Y-77731523D01*
X148626666Y-77541047D01*
X148664761Y-77464857D01*
X148702857Y-77426761D01*
X148779047Y-77388666D01*
X148931428Y-77388666D01*
X149007619Y-77426761D01*
X149045714Y-77464857D01*
X149083809Y-77541047D01*
X128069523Y-97231904D02*
X127612380Y-97231904D01*
X127840952Y-98031904D02*
X127840952Y-97231904D01*
X127345714Y-98031904D02*
X127345714Y-97231904D01*
X127040952Y-97231904D01*
X126964761Y-97270000D01*
X126926666Y-97308095D01*
X126888571Y-97384285D01*
X126888571Y-97498571D01*
X126926666Y-97574761D01*
X126964761Y-97612857D01*
X127040952Y-97650952D01*
X127345714Y-97650952D01*
X126202857Y-97498571D02*
X126202857Y-98031904D01*
X126393333Y-97193809D02*
X126583809Y-97765238D01*
X126088571Y-97765238D01*
X175850476Y-76431904D02*
X175393333Y-76431904D01*
X175621904Y-77231904D02*
X175621904Y-76431904D01*
X175126666Y-77231904D02*
X175126666Y-76431904D01*
X174821904Y-76431904D01*
X174745714Y-76470000D01*
X174707619Y-76508095D01*
X174669523Y-76584285D01*
X174669523Y-76698571D01*
X174707619Y-76774761D01*
X174745714Y-76812857D01*
X174821904Y-76850952D01*
X175126666Y-76850952D01*
X173907619Y-77231904D02*
X174364761Y-77231904D01*
X174136190Y-77231904D02*
X174136190Y-76431904D01*
X174212380Y-76546190D01*
X174288571Y-76622380D01*
X174364761Y-76660476D01*
X173526666Y-77231904D02*
X173374285Y-77231904D01*
X173298095Y-77193809D01*
X173260000Y-77155714D01*
X173183809Y-77041428D01*
X173145714Y-76889047D01*
X173145714Y-76584285D01*
X173183809Y-76508095D01*
X173221904Y-76470000D01*
X173298095Y-76431904D01*
X173450476Y-76431904D01*
X173526666Y-76470000D01*
X173564761Y-76508095D01*
X173602857Y-76584285D01*
X173602857Y-76774761D01*
X173564761Y-76850952D01*
X173526666Y-76889047D01*
X173450476Y-76927142D01*
X173298095Y-76927142D01*
X173221904Y-76889047D01*
X173183809Y-76850952D01*
X173145714Y-76774761D01*
X133169523Y-103431904D02*
X132712380Y-103431904D01*
X132940952Y-104231904D02*
X132940952Y-103431904D01*
X132445714Y-104231904D02*
X132445714Y-103431904D01*
X132140952Y-103431904D01*
X132064761Y-103470000D01*
X132026666Y-103508095D01*
X131988571Y-103584285D01*
X131988571Y-103698571D01*
X132026666Y-103774761D01*
X132064761Y-103812857D01*
X132140952Y-103850952D01*
X132445714Y-103850952D01*
X131721904Y-103431904D02*
X131226666Y-103431904D01*
X131493333Y-103736666D01*
X131379047Y-103736666D01*
X131302857Y-103774761D01*
X131264761Y-103812857D01*
X131226666Y-103889047D01*
X131226666Y-104079523D01*
X131264761Y-104155714D01*
X131302857Y-104193809D01*
X131379047Y-104231904D01*
X131607619Y-104231904D01*
X131683809Y-104193809D01*
X131721904Y-104155714D01*
X121921904Y-97579523D02*
X121921904Y-98036666D01*
X122721904Y-97808095D02*
X121921904Y-97808095D01*
X122721904Y-98303333D02*
X121921904Y-98303333D01*
X121921904Y-98608095D01*
X121960000Y-98684285D01*
X121998095Y-98722380D01*
X122074285Y-98760476D01*
X122188571Y-98760476D01*
X122264761Y-98722380D01*
X122302857Y-98684285D01*
X122340952Y-98608095D01*
X122340952Y-98303333D01*
X122721904Y-99522380D02*
X122721904Y-99065238D01*
X122721904Y-99293809D02*
X121921904Y-99293809D01*
X122036190Y-99217619D01*
X122112380Y-99141428D01*
X122150476Y-99065238D01*
X122721904Y-100284285D02*
X122721904Y-99827142D01*
X122721904Y-100055714D02*
X121921904Y-100055714D01*
X122036190Y-99979523D01*
X122112380Y-99903333D01*
X122150476Y-99827142D01*
X124350476Y-53231904D02*
X123893333Y-53231904D01*
X124121904Y-54031904D02*
X124121904Y-53231904D01*
X123626666Y-54031904D02*
X123626666Y-53231904D01*
X123321904Y-53231904D01*
X123245714Y-53270000D01*
X123207619Y-53308095D01*
X123169523Y-53384285D01*
X123169523Y-53498571D01*
X123207619Y-53574761D01*
X123245714Y-53612857D01*
X123321904Y-53650952D01*
X123626666Y-53650952D01*
X122407619Y-54031904D02*
X122864761Y-54031904D01*
X122636190Y-54031904D02*
X122636190Y-53231904D01*
X122712380Y-53346190D01*
X122788571Y-53422380D01*
X122864761Y-53460476D01*
X121912380Y-53231904D02*
X121836190Y-53231904D01*
X121760000Y-53270000D01*
X121721904Y-53308095D01*
X121683809Y-53384285D01*
X121645714Y-53536666D01*
X121645714Y-53727142D01*
X121683809Y-53879523D01*
X121721904Y-53955714D01*
X121760000Y-53993809D01*
X121836190Y-54031904D01*
X121912380Y-54031904D01*
X121988571Y-53993809D01*
X122026666Y-53955714D01*
X122064761Y-53879523D01*
X122102857Y-53727142D01*
X122102857Y-53536666D01*
X122064761Y-53384285D01*
X122026666Y-53308095D01*
X121988571Y-53270000D01*
X121912380Y-53231904D01*
X175650476Y-87931904D02*
X175193333Y-87931904D01*
X175421904Y-88731904D02*
X175421904Y-87931904D01*
X174926666Y-88731904D02*
X174926666Y-87931904D01*
X174621904Y-87931904D01*
X174545714Y-87970000D01*
X174507619Y-88008095D01*
X174469523Y-88084285D01*
X174469523Y-88198571D01*
X174507619Y-88274761D01*
X174545714Y-88312857D01*
X174621904Y-88350952D01*
X174926666Y-88350952D01*
X173707619Y-88731904D02*
X174164761Y-88731904D01*
X173936190Y-88731904D02*
X173936190Y-87931904D01*
X174012380Y-88046190D01*
X174088571Y-88122380D01*
X174164761Y-88160476D01*
X173440952Y-87931904D02*
X172907619Y-87931904D01*
X173250476Y-88731904D01*
X160350476Y-93931904D02*
X159893333Y-93931904D01*
X160121904Y-94731904D02*
X160121904Y-93931904D01*
X159626666Y-94731904D02*
X159626666Y-93931904D01*
X159321904Y-93931904D01*
X159245714Y-93970000D01*
X159207619Y-94008095D01*
X159169523Y-94084285D01*
X159169523Y-94198571D01*
X159207619Y-94274761D01*
X159245714Y-94312857D01*
X159321904Y-94350952D01*
X159626666Y-94350952D01*
X158407619Y-94731904D02*
X158864761Y-94731904D01*
X158636190Y-94731904D02*
X158636190Y-93931904D01*
X158712380Y-94046190D01*
X158788571Y-94122380D01*
X158864761Y-94160476D01*
X158102857Y-94008095D02*
X158064761Y-93970000D01*
X157988571Y-93931904D01*
X157798095Y-93931904D01*
X157721904Y-93970000D01*
X157683809Y-94008095D01*
X157645714Y-94084285D01*
X157645714Y-94160476D01*
X157683809Y-94274761D01*
X158140952Y-94731904D01*
X157645714Y-94731904D01*
X175650476Y-83431904D02*
X175193333Y-83431904D01*
X175421904Y-84231904D02*
X175421904Y-83431904D01*
X174926666Y-84231904D02*
X174926666Y-83431904D01*
X174621904Y-83431904D01*
X174545714Y-83470000D01*
X174507619Y-83508095D01*
X174469523Y-83584285D01*
X174469523Y-83698571D01*
X174507619Y-83774761D01*
X174545714Y-83812857D01*
X174621904Y-83850952D01*
X174926666Y-83850952D01*
X173707619Y-84231904D02*
X174164761Y-84231904D01*
X173936190Y-84231904D02*
X173936190Y-83431904D01*
X174012380Y-83546190D01*
X174088571Y-83622380D01*
X174164761Y-83660476D01*
X173021904Y-83698571D02*
X173021904Y-84231904D01*
X173212380Y-83393809D02*
X173402857Y-83965238D01*
X172907619Y-83965238D01*
X141050476Y-64131904D02*
X140593333Y-64131904D01*
X140821904Y-64931904D02*
X140821904Y-64131904D01*
X140326666Y-64931904D02*
X140326666Y-64131904D01*
X140021904Y-64131904D01*
X139945714Y-64170000D01*
X139907619Y-64208095D01*
X139869523Y-64284285D01*
X139869523Y-64398571D01*
X139907619Y-64474761D01*
X139945714Y-64512857D01*
X140021904Y-64550952D01*
X140326666Y-64550952D01*
X139564761Y-64208095D02*
X139526666Y-64170000D01*
X139450476Y-64131904D01*
X139260000Y-64131904D01*
X139183809Y-64170000D01*
X139145714Y-64208095D01*
X139107619Y-64284285D01*
X139107619Y-64360476D01*
X139145714Y-64474761D01*
X139602857Y-64931904D01*
X139107619Y-64931904D01*
X138650476Y-64474761D02*
X138726666Y-64436666D01*
X138764761Y-64398571D01*
X138802857Y-64322380D01*
X138802857Y-64284285D01*
X138764761Y-64208095D01*
X138726666Y-64170000D01*
X138650476Y-64131904D01*
X138498095Y-64131904D01*
X138421904Y-64170000D01*
X138383809Y-64208095D01*
X138345714Y-64284285D01*
X138345714Y-64322380D01*
X138383809Y-64398571D01*
X138421904Y-64436666D01*
X138498095Y-64474761D01*
X138650476Y-64474761D01*
X138726666Y-64512857D01*
X138764761Y-64550952D01*
X138802857Y-64627142D01*
X138802857Y-64779523D01*
X138764761Y-64855714D01*
X138726666Y-64893809D01*
X138650476Y-64931904D01*
X138498095Y-64931904D01*
X138421904Y-64893809D01*
X138383809Y-64855714D01*
X138345714Y-64779523D01*
X138345714Y-64627142D01*
X138383809Y-64550952D01*
X138421904Y-64512857D01*
X138498095Y-64474761D01*
X104250476Y-57883904D02*
X103793333Y-57883904D01*
X104021904Y-58683904D02*
X104021904Y-57883904D01*
X103526666Y-58683904D02*
X103526666Y-57883904D01*
X103221904Y-57883904D01*
X103145714Y-57922000D01*
X103107619Y-57960095D01*
X103069523Y-58036285D01*
X103069523Y-58150571D01*
X103107619Y-58226761D01*
X103145714Y-58264857D01*
X103221904Y-58302952D01*
X103526666Y-58302952D01*
X102764761Y-57960095D02*
X102726666Y-57922000D01*
X102650476Y-57883904D01*
X102460000Y-57883904D01*
X102383809Y-57922000D01*
X102345714Y-57960095D01*
X102307619Y-58036285D01*
X102307619Y-58112476D01*
X102345714Y-58226761D01*
X102802857Y-58683904D01*
X102307619Y-58683904D01*
X101621904Y-57883904D02*
X101774285Y-57883904D01*
X101850476Y-57922000D01*
X101888571Y-57960095D01*
X101964761Y-58074380D01*
X102002857Y-58226761D01*
X102002857Y-58531523D01*
X101964761Y-58607714D01*
X101926666Y-58645809D01*
X101850476Y-58683904D01*
X101698095Y-58683904D01*
X101621904Y-58645809D01*
X101583809Y-58607714D01*
X101545714Y-58531523D01*
X101545714Y-58341047D01*
X101583809Y-58264857D01*
X101621904Y-58226761D01*
X101698095Y-58188666D01*
X101850476Y-58188666D01*
X101926666Y-58226761D01*
X101964761Y-58264857D01*
X102002857Y-58341047D01*
X175850476Y-79731904D02*
X175393333Y-79731904D01*
X175621904Y-80531904D02*
X175621904Y-79731904D01*
X175126666Y-80531904D02*
X175126666Y-79731904D01*
X174821904Y-79731904D01*
X174745714Y-79770000D01*
X174707619Y-79808095D01*
X174669523Y-79884285D01*
X174669523Y-79998571D01*
X174707619Y-80074761D01*
X174745714Y-80112857D01*
X174821904Y-80150952D01*
X175126666Y-80150952D01*
X174364761Y-79808095D02*
X174326666Y-79770000D01*
X174250476Y-79731904D01*
X174060000Y-79731904D01*
X173983809Y-79770000D01*
X173945714Y-79808095D01*
X173907619Y-79884285D01*
X173907619Y-79960476D01*
X173945714Y-80074761D01*
X174402857Y-80531904D01*
X173907619Y-80531904D01*
X173145714Y-80531904D02*
X173602857Y-80531904D01*
X173374285Y-80531904D02*
X173374285Y-79731904D01*
X173450476Y-79846190D01*
X173526666Y-79922380D01*
X173602857Y-79960476D01*
X164250476Y-59531904D02*
X163793333Y-59531904D01*
X164021904Y-60331904D02*
X164021904Y-59531904D01*
X163526666Y-60331904D02*
X163526666Y-59531904D01*
X163221904Y-59531904D01*
X163145714Y-59570000D01*
X163107619Y-59608095D01*
X163069523Y-59684285D01*
X163069523Y-59798571D01*
X163107619Y-59874761D01*
X163145714Y-59912857D01*
X163221904Y-59950952D01*
X163526666Y-59950952D01*
X162764761Y-59608095D02*
X162726666Y-59570000D01*
X162650476Y-59531904D01*
X162460000Y-59531904D01*
X162383809Y-59570000D01*
X162345714Y-59608095D01*
X162307619Y-59684285D01*
X162307619Y-59760476D01*
X162345714Y-59874761D01*
X162802857Y-60331904D01*
X162307619Y-60331904D01*
X161621904Y-59798571D02*
X161621904Y-60331904D01*
X161812380Y-59493809D02*
X162002857Y-60065238D01*
X161507619Y-60065238D01*
D12*
X130360000Y-99470000D02*
G75*
G03*
X130360000Y-99470000I-700000J0D01*
G01*
X121260000Y-92570000D02*
G75*
G03*
X121260000Y-92570000I-700000J0D01*
G01*
X181460000Y-76870000D02*
G75*
G03*
X181460000Y-76870000I-700000J0D01*
G01*
X118960000Y-98670000D02*
G75*
G03*
X118960000Y-98670000I-700000J0D01*
G01*
X140360000Y-59370000D02*
G75*
G03*
X140360000Y-59370000I-700000J0D01*
G01*
X130360000Y-96070000D02*
G75*
G03*
X130360000Y-96070000I-700000J0D01*
G01*
X144760000Y-59370000D02*
G75*
G03*
X144760000Y-59370000I-700000J0D01*
G01*
X174360000Y-62370000D02*
G75*
G03*
X174360000Y-62370000I-700000J0D01*
G01*
X132560000Y-97470000D02*
G75*
G03*
X132560000Y-97470000I-700000J0D01*
G01*
X124260000Y-78770000D02*
G75*
G03*
X124260000Y-78770000I-700000J0D01*
G01*
X166760000Y-91470000D02*
G75*
G03*
X166760000Y-91470000I-700000J0D01*
G01*
X107260000Y-58870000D02*
G75*
G03*
X107260000Y-58870000I-700000J0D01*
G01*
X121460000Y-80070000D02*
G75*
G03*
X121460000Y-80070000I-700000J0D01*
G01*
X174360000Y-64870000D02*
G75*
G03*
X174360000Y-64870000I-700000J0D01*
G01*
X109160000Y-47770000D02*
G75*
G03*
X109160000Y-47770000I-700000J0D01*
G01*
X164360000Y-91970000D02*
G75*
G03*
X164360000Y-91970000I-700000J0D01*
G01*
X177360000Y-93070000D02*
G75*
G03*
X177360000Y-93070000I-700000J0D01*
G01*
X150260000Y-78970000D02*
G75*
G03*
X150260000Y-78970000I-700000J0D01*
G01*
X127760000Y-96070000D02*
G75*
G03*
X127760000Y-96070000I-700000J0D01*
G01*
X177560000Y-76870000D02*
G75*
G03*
X177560000Y-76870000I-700000J0D01*
G01*
X132860000Y-102270000D02*
G75*
G03*
X132860000Y-102270000I-700000J0D01*
G01*
X121360000Y-98670000D02*
G75*
G03*
X121360000Y-98670000I-700000J0D01*
G01*
X121260000Y-53670000D02*
G75*
G03*
X121260000Y-53670000I-700000J0D01*
G01*
X177360000Y-88370000D02*
G75*
G03*
X177360000Y-88370000I-700000J0D01*
G01*
X162160000Y-94370000D02*
G75*
G03*
X162160000Y-94370000I-700000J0D01*
G01*
X177360000Y-83870000D02*
G75*
G03*
X177360000Y-83870000I-700000J0D01*
G01*
X140360000Y-62970000D02*
G75*
G03*
X140360000Y-62970000I-700000J0D01*
G01*
X103560000Y-59770000D02*
G75*
G03*
X103560000Y-59770000I-700000J0D01*
G01*
X177560000Y-80170000D02*
G75*
G03*
X177560000Y-80170000I-700000J0D01*
G01*
X163560000Y-61470000D02*
G75*
G03*
X163560000Y-61470000I-700000J0D01*
G01*
%LPC*%
D13*
X100000000Y-51740000D03*
X171120000Y-100000000D03*
D14*
X181535000Y-83870000D03*
D15*
X178995000Y-83870000D03*
D16*
X139500000Y-54400000D03*
D17*
X139500000Y-51860000D03*
X142040000Y-54400000D03*
X142040000Y-51860000D03*
X144580000Y-54400000D03*
X144580000Y-51860000D03*
X147120000Y-54400000D03*
X147120000Y-51860000D03*
X149660000Y-54400000D03*
X149660000Y-51860000D03*
X152200000Y-54400000D03*
X152200000Y-51860000D03*
X154740000Y-54400000D03*
X154740000Y-51860000D03*
X157280000Y-54400000D03*
X157280000Y-51860000D03*
X159820000Y-54400000D03*
X159820000Y-51860000D03*
X162360000Y-54400000D03*
X162360000Y-51860000D03*
D14*
X123135000Y-55570000D03*
D15*
X120595000Y-55570000D03*
D14*
X181535000Y-93070000D03*
D15*
X178995000Y-93070000D03*
D14*
X123135000Y-75870000D03*
D15*
X120595000Y-75870000D03*
D18*
X123197500Y-51337500D03*
D19*
X125737500Y-51337500D03*
X128277500Y-51337500D03*
X130817500Y-51337500D03*
D14*
X181535000Y-58670000D03*
D15*
X178995000Y-58670000D03*
D20*
X98813000Y-65120000D03*
D21*
X98813000Y-62620000D03*
X96813000Y-62620000D03*
X96813000Y-65120000D03*
D22*
X94103000Y-69890000D03*
X94103000Y-57850000D03*
D13*
X100000000Y-100000000D03*
X171120000Y-51740000D03*
D23*
X120720000Y-64585000D03*
D24*
X124276000Y-62680000D03*
D23*
X125800000Y-64585000D03*
D24*
X123260000Y-67760000D03*
D23*
X125800000Y-67760000D03*
X120720000Y-67760000D03*
D24*
X122244000Y-62680000D03*
D14*
X123135000Y-96170000D03*
D15*
X120595000Y-96170000D03*
D14*
X181535000Y-63270000D03*
D15*
X178995000Y-63270000D03*
D25*
X162360000Y-97390000D03*
D17*
X162360000Y-99930000D03*
X159820000Y-97390000D03*
X159820000Y-99930000D03*
X157280000Y-97390000D03*
X157280000Y-99930000D03*
X154740000Y-97390000D03*
X154740000Y-99930000D03*
X152200000Y-97390000D03*
X152200000Y-99930000D03*
X149660000Y-97390000D03*
X149660000Y-99930000D03*
X147120000Y-97390000D03*
X147120000Y-99930000D03*
X144580000Y-97390000D03*
X144580000Y-99930000D03*
X142040000Y-97390000D03*
X142040000Y-99930000D03*
X139500000Y-97390000D03*
X139500000Y-99930000D03*
D26*
X94630000Y-91915000D03*
X94630000Y-80485000D03*
D27*
X97680000Y-93975000D03*
X97680000Y-78425000D03*
D28*
X91250000Y-92525000D03*
X89730000Y-89985000D03*
X91250000Y-82415000D03*
X89730000Y-79875000D03*
D29*
X100970000Y-81755000D03*
D30*
X103510000Y-83025000D03*
X100970000Y-84295000D03*
X103510000Y-85565000D03*
X100970000Y-86835000D03*
X103510000Y-88105000D03*
X100970000Y-89375000D03*
X103510000Y-90645000D03*
D31*
X112447500Y-53820000D03*
D17*
X114987500Y-53820000D03*
X112447500Y-56360000D03*
X114987500Y-56360000D03*
X112447500Y-58900000D03*
X114987500Y-58900000D03*
X112447500Y-61440000D03*
X114987500Y-61440000D03*
X112447500Y-63980000D03*
X114987500Y-63980000D03*
D14*
X181535000Y-67870000D03*
D15*
X178995000Y-67870000D03*
D14*
X181535000Y-88470000D03*
D15*
X178995000Y-88470000D03*
D32*
X129660000Y-99470000D03*
X120560000Y-92570000D03*
X180760000Y-76870000D03*
X118260000Y-98670000D03*
X139660000Y-59370000D03*
X129660000Y-96070000D03*
X144060000Y-59370000D03*
X173660000Y-62370000D03*
X131860000Y-97470000D03*
X123560000Y-78770000D03*
X166060000Y-91470000D03*
X106560000Y-58870000D03*
X120760000Y-80070000D03*
X173660000Y-64870000D03*
X108460000Y-47770000D03*
X163660000Y-91970000D03*
X176660000Y-93070000D03*
X149560000Y-78970000D03*
X127060000Y-96070000D03*
X176860000Y-76870000D03*
X132160000Y-102270000D03*
X120660000Y-98670000D03*
X120560000Y-53670000D03*
X176660000Y-88370000D03*
X161460000Y-94370000D03*
X176660000Y-83870000D03*
X139660000Y-62970000D03*
X102860000Y-59770000D03*
X176860000Y-80170000D03*
X162860000Y-61470000D03*
M02*
